<?xml version="1.0" encoding="UTF-8"?>
<svg width="270px" height="56px" viewBox="0 0 270 56" version="1.1" xmlns="http://www.w3.org/2000/svg" xmlns:xlink="http://www.w3.org/1999/xlink">
    <title>编组 3</title>
    <g id="页面-1" stroke="none" stroke-width="1" fill="none" fill-rule="evenodd">
        <g id="编组-3">
            <g id="ZK">
                <polygon id="路径" fill="#4E529A" points="100 28.0000678 71.9003584 0 71.9003584 20.5058822 44 41.0370733 71.9003584 41.0563348 71.9003584 56"></polygon>
                <polygon id="路径" fill="#8C8DFC" points="0 28.000044 28.0994666 56 28.0994666 35.6590296 56 14.9627896 28.0994666 14.9436232 28.0994666 0"></polygon>
            </g>
            <path d="M134,40 L134,34.544 L122.448687,34.544 L133.618138,22.752 L133.618138,18 L114.143198,18 L114.143198,23.456 L125.169451,23.456 L114,35.292 L114,40 L134,40 Z M144.447059,40 L144.447059,29.5733333 L154.047059,40 L162,40 L150.517647,27.5333333 L159.835294,17.3333333 L152.070588,17.3333333 L144.447059,25.6746667 L144.447059,6 L138,6 L138,40 L144.447059,40 Z M176.23622,42 C179.700787,42 182.527559,41.0812897 184.716535,39.2438692 C186.905512,37.4064487 188,35.0208901 188,32.0871935 C188,27.5168029 185.338583,24.2588556 180.015748,22.3133515 L180.015748,22.3133515 L177.322835,21.3405995 C175.401575,20.6612171 174.055118,20.0435967 173.283465,19.4877384 C172.511811,18.9318801 172.125984,18.1752952 172.125984,17.2179837 C172.125984,16.2915531 172.566929,15.5735695 173.448819,15.0640327 C174.330709,14.5544959 175.385827,14.2997275 176.614173,14.2997275 C179.007874,14.2997275 181.007874,15.2415985 182.614173,17.1253406 L182.614173,17.1253406 L187.149606,12.5395095 C184.377953,9.51316985 180.850394,8 176.566929,8 C173.228346,8 170.503937,8.88782925 168.393701,10.6634877 C166.283465,12.4391462 165.228346,14.8401453 165.228346,17.866485 C165.228346,22.2515895 167.984252,25.3860127 173.496063,27.2697548 L173.496063,27.2697548 L176.330709,28.2425068 C178,28.7983651 179.19685,29.4159855 179.92126,30.0953678 C180.645669,30.7747502 181.007874,31.5776567 181.007874,32.5040872 C181.007874,33.4613987 180.598425,34.2334242 179.779528,34.8201635 C178.96063,35.4069028 177.874016,35.7002725 176.519685,35.7002725 C175.102362,35.7002725 173.740157,35.352861 172.433071,34.6580381 C171.125984,33.9632153 170.062992,33.013624 169.244094,31.8092643 L169.244094,31.8092643 L164,36.1171662 C165.19685,37.9700272 166.874016,39.4137148 169.031496,40.4482289 C171.188976,41.482743 173.590551,42 176.23622,42 Z M199.626761,50 L214,18 L207.088028,18 L201,32.6234133 L194.866197,18 L188,18 L197.612676,39.303244 L192.806338,50 L199.626761,50 Z M224.372093,40 L224.372093,28.5401174 C224.372093,26.3483366 224.844961,24.6888454 225.790698,23.5616438 C226.736434,22.4344423 227.984496,21.8708415 229.534884,21.8708415 C230.837209,21.8708415 231.844961,22.3483366 232.55814,23.3033268 C233.271318,24.258317 233.627907,25.5968689 233.627907,27.3189824 L233.627907,27.3189824 L233.627907,40 L240,40 L240,26.2387476 C240,23.1389432 239.20155,20.6575342 237.604651,18.7945205 C236.007752,16.9315068 233.813953,16 231.023256,16 C228.015504,16 225.79845,17.0645793 224.372093,19.1937378 L224.372093,19.1937378 L224.372093,16.5166341 L218,16.5166341 L218,40 L224.372093,40 Z M258.669323,40 C261.123506,40 263.36255,39.394636 265.386454,38.183908 C267.410359,36.9731801 268.948207,35.3716475 270,33.3793103 L270,33.3793103 L264.310757,30.4367816 C263.800797,31.5402299 263.059761,32.4291188 262.087649,33.1034483 C261.115538,33.7777778 259.976096,34.1149425 258.669323,34.1149425 C256.948207,34.1149425 255.505976,33.532567 254.342629,32.3678161 C253.179283,31.2030651 252.59761,29.7471264 252.59761,28 C252.59761,26.2528736 253.179283,24.7969349 254.342629,23.6321839 C255.505976,22.467433 256.948207,21.8850575 258.669323,21.8850575 C259.976096,21.8850575 261.115538,22.2222222 262.087649,22.8965517 C263.059761,23.5708812 263.800797,24.4597701 264.310757,25.5632184 L264.310757,25.5632184 L270,22.6206897 C268.948207,20.6283525 267.410359,19.0268199 265.386454,17.816092 C263.36255,16.605364 261.123506,16 258.669323,16 C255.099602,16 252.095618,17.1417625 249.657371,19.4252874 C247.219124,21.7088123 246,24.5670498 246,28 C246,31.4329502 247.219124,34.2911877 249.657371,36.5747126 C252.095618,38.8582375 255.099602,40 258.669323,40 Z" id="zkSync" fill="#FFFFFF" fill-rule="nonzero"></path>
        </g>
    </g>
</svg>