<svg width="20" height="20" viewBox="0 0 20 20" fill="none" xmlns="http://www.w3.org/2000/svg">
<path d="M12.056 9.26851L12.8365 10.049L12.056 10.8295L9.04546 13.84L8.26496 12.948L11.2755 9.93751L8.26496 7.03851L9.04546 6.25801L12.056 9.26851ZM9.93746 19.415C4.69696 19.415 0.459961 15.178 0.459961 9.93751C0.459961 4.69701 4.69696 0.460007 9.93746 0.460007C15.178 0.460007 19.415 4.69701 19.415 9.93751C19.415 15.178 15.178 19.415 9.93746 19.415ZM9.93746 18.3C14.509 18.3 18.3 14.509 18.3 9.93751C18.3 5.36601 14.509 1.57501 9.93746 1.57501C5.36596 1.57501 1.57496 5.36601 1.57496 9.93751C1.57496 14.509 5.36596 18.3 9.93746 18.3Z" fill="white"/>
</svg>
