<svg width="235" height="46" viewBox="0 0 235 46" fill="none" xmlns="http://www.w3.org/2000/svg">
<path d="M58.0685 0C58.4197 0.336257 58.6371 0.538012 58.8378 0.739766C66.0629 8.00292 73.3047 15.2829 80.5466 22.5292C80.9312 22.9159 81.0316 23.1345 80.58 23.5716C73.2044 30.9357 65.8455 38.3165 58.4866 45.6974C58.3862 45.7982 58.2859 45.8823 58.1521 46C57.9347 45.731 58.035 45.4452 58.035 45.193C58.035 41.6623 58.0183 38.1316 58.0517 34.6177C58.0517 33.9788 57.8678 33.8275 57.2657 33.8443C50.2747 33.8611 43.267 33.8443 36.2761 33.8275C36.0085 33.8275 35.7241 33.8275 35.3729 33.8275C35.49 33.4744 35.7576 33.3735 35.975 33.2222C43.1332 27.9262 50.2747 22.6301 57.4496 17.3509C57.9179 17.0146 58.0685 16.6616 58.0685 16.1067C58.0517 10.7939 58.0685 5.49781 58.0685 0Z" fill="#4F509E"/>
<path d="M0 22.8995C7.47598 15.4177 14.952 7.95283 22.4279 0.487916C22.5617 0.353413 22.6788 0.202097 22.8126 0.0507812C23.0969 0.302974 22.9631 0.622419 22.9631 0.908237C22.9799 4.35487 22.9631 7.7847 22.9631 11.2313C22.9631 12.4419 22.9631 12.4419 24.2175 12.4419C30.9576 12.4587 37.6977 12.4587 44.4378 12.4755C44.7388 12.4755 45.0566 12.4755 45.5751 12.4755C44.3374 13.4002 43.267 14.2072 42.1966 15.0142C35.9917 19.6546 29.7868 24.2781 23.5485 28.9017C23.0969 29.2379 22.9297 29.591 22.9297 30.1458C22.9464 35.1224 22.9297 40.099 22.9297 45.0924C22.9297 45.3615 22.9297 45.6473 22.9297 45.9331C22.5785 45.9835 22.4781 45.6977 22.3109 45.5296C15.0523 38.2328 7.79375 30.936 0.518468 23.6224C0.317771 23.4038 0.0334496 23.2357 0 22.8995Z" fill="#8D89FE"/>
<path d="M154.336 37.3243C151.476 37.2066 148.566 36.5004 146.208 34.3148C144.485 32.7344 143.348 30.7672 142.897 28.4303C142.78 27.8586 142.913 27.5896 143.515 27.4551C144.92 27.1357 146.308 26.7322 147.697 26.3455C148.098 26.2278 148.315 26.1605 148.432 26.7826C149.319 31.0867 153.818 33.3228 157.832 31.4734C159.203 30.8345 160.073 29.7921 160.04 28.2117C160.023 26.5977 159.069 25.5721 157.665 24.9836C156.059 24.3111 154.32 24.1598 152.63 23.8067C150.423 23.3528 148.332 22.6298 146.626 21.0662C143.231 17.939 143.03 12.643 146.108 8.94415C150.64 3.5304 159.722 4.48874 163.1 8.23801C164.237 9.49897 165.09 10.9113 165.575 12.5589C165.709 13.0297 165.609 13.2482 165.107 13.3996C163.736 13.7694 162.381 14.1729 161.043 14.6437C160.474 14.8455 160.307 14.7278 160.123 14.1729C158.952 10.6422 154.286 9.26359 151.41 11.567C150.222 12.5253 149.687 13.719 150.021 15.2658C150.339 16.7117 151.359 17.4346 152.664 17.7541C154.587 18.208 156.544 18.4939 158.467 18.9646C161.745 19.7716 164.354 21.5034 165.592 24.7987C167.265 29.2709 165.007 34.2643 160.441 36.3155C158.568 37.1393 156.594 37.3747 154.336 37.3243Z" fill="white"/>
<path d="M125.67 23.2519C127.225 21.5874 128.614 20.0742 130.019 18.5779C130.905 17.6196 131.791 16.6444 132.694 15.6861C132.878 15.4843 133.029 15.2489 133.363 15.2658C135.722 15.2826 138.08 15.2658 140.622 15.2826C140.12 15.8206 139.752 16.2241 139.384 16.6108C137.11 18.9982 134.852 21.3856 132.561 23.7563C132.176 24.1598 132.159 24.412 132.477 24.8659C135.053 28.4807 137.578 32.1291 140.137 35.7606C140.321 36.0296 140.505 36.3155 140.789 36.719C140.237 36.719 139.819 36.719 139.384 36.719C137.712 36.719 136.039 36.7022 134.367 36.7358C133.899 36.7358 133.614 36.5845 133.347 36.1978C131.791 33.8776 130.202 31.591 128.614 29.2877C128.446 29.0355 128.262 28.8001 128.062 28.5143C127.326 29.2877 126.64 30.0611 125.904 30.784C125.653 31.0362 125.67 31.322 125.67 31.6415C125.67 33.1042 125.653 34.5501 125.687 36.0128C125.704 36.5508 125.57 36.7358 125.001 36.719C123.546 36.6685 122.108 36.6685 120.653 36.719C120.067 36.7358 119.917 36.5508 119.917 35.9792C119.95 31.7592 119.933 27.5223 119.933 23.3023C119.933 17.5019 119.95 11.7182 119.933 5.9178C119.933 5.29573 120.084 5.11079 120.703 5.14441C122.091 5.19485 123.496 5.19485 124.884 5.14441C125.52 5.1276 125.704 5.27891 125.704 5.95143C125.67 11.4324 125.687 16.9302 125.687 22.4112C125.67 22.5962 125.67 22.7979 125.67 23.2519Z" fill="white"/>
<path d="M197.068 17.8212C199.393 14.879 202.32 14.2233 205.631 15.0303C208.658 15.7701 210.097 18.0398 210.749 20.9316C210.933 21.7555 210.95 22.5961 210.95 23.4367C210.95 27.6063 210.933 31.7759 210.95 35.9455C210.95 36.5508 210.833 36.7693 210.18 36.7525C208.759 36.7021 207.337 36.7021 205.916 36.7525C205.33 36.7693 205.163 36.6012 205.18 36.0128C205.213 32.2299 205.196 28.4638 205.196 24.6809C205.196 23.6049 205.096 22.5457 204.511 21.621C203.725 20.36 202.203 19.7379 200.58 20.0069C199.008 20.2759 197.771 21.4528 197.403 23.0669C197.286 23.5881 197.235 24.1093 197.235 24.6473C197.235 28.4302 197.219 32.1962 197.252 35.9791C197.252 36.618 197.102 36.7862 196.466 36.7693C195.044 36.7189 193.623 36.7357 192.201 36.7525C191.699 36.7693 191.465 36.6853 191.465 36.08C191.499 29.3549 191.499 22.6465 191.482 15.9214C191.482 15.4002 191.633 15.2657 192.134 15.2657C193.556 15.2993 194.978 15.3161 196.399 15.2657C196.985 15.2489 197.102 15.4674 197.068 15.9886C197.035 16.5435 197.068 17.0983 197.068 17.8212Z" fill="white"/>
<path d="M169.74 45.1427C171.312 41.6625 172.834 38.2831 174.389 34.9205C174.69 34.2816 174.69 33.7941 174.373 33.1552C171.596 27.5061 168.87 21.8233 166.127 16.1574C166.01 15.9052 165.893 15.653 165.726 15.2831C167.298 15.2831 168.787 15.4008 170.258 15.2495C171.73 15.0982 172.433 15.6025 173.001 16.998C174.373 20.3438 175.962 23.6055 177.45 26.9176C177.567 27.1698 177.684 27.4052 177.868 27.7919C179.005 25.1018 180.076 22.5294 181.163 19.9571C181.732 18.5952 182.317 17.2334 182.869 15.8715C183.036 15.4512 183.254 15.2831 183.722 15.2999C185.311 15.3335 186.9 15.3503 188.488 15.2999C189.274 15.2663 189.191 15.5353 188.94 16.0901C184.809 25.2531 180.661 34.433 176.58 43.6296C176.045 44.8569 175.46 45.3613 174.088 45.2268C172.717 45.0419 171.279 45.1427 169.74 45.1427Z" fill="white"/>
<path d="M213.91 24.8155C213.96 21.6042 215.7 18.1408 219.513 16.0392C223.176 14.0216 226.989 14.0553 230.668 16.1233C232.709 17.2665 234.08 19.0487 234.816 21.2848C234.95 21.6883 234.933 21.9069 234.448 22.0582C233.077 22.4785 231.705 22.9829 230.351 23.4537C229.983 23.5882 229.799 23.5377 229.615 23.1174C228.578 20.6459 226.939 19.738 224.162 20.0743C221.988 20.3433 220.132 22.1927 219.78 24.5129C219.53 26.1437 219.58 27.7578 220.399 29.2541C221.486 31.238 223.192 32.1291 225.433 32.045C227.524 31.961 229.013 30.9354 229.815 28.9851C230.016 28.4807 230.25 28.4975 230.685 28.6488C231.923 29.086 233.16 29.5063 234.398 29.8594C235 30.0275 235.117 30.2629 234.883 30.8513C233.495 34.2139 231.137 36.4668 227.541 37.1393C223.276 37.9295 219.53 36.904 216.569 33.575C214.796 31.5743 213.91 29.0019 213.91 24.8155Z" fill="white"/>
<path d="M108.945 20.2595C105.818 20.2595 102.857 20.2427 99.9139 20.2763C99.2951 20.2763 99.0275 20.1922 99.0609 19.4693C99.1278 18.2756 99.0944 17.065 99.0777 15.8545C99.0609 15.3837 99.1947 15.2324 99.6797 15.2324C105.032 15.2492 110.367 15.2492 115.719 15.2324C116.204 15.2324 116.338 15.4006 116.321 15.8545C116.287 17.1155 116.287 18.3764 116.321 19.6374C116.338 20.0577 116.137 20.3099 115.886 20.5789C112.725 24.076 109.564 27.5731 106.403 31.087C106.286 31.2215 106.085 31.3223 106.085 31.5577C106.303 31.7258 106.554 31.6418 106.788 31.6418C109.765 31.6586 112.742 31.6586 115.736 31.6418C116.287 31.6418 116.522 31.7258 116.488 32.3479C116.438 33.6089 116.455 34.8698 116.471 36.1308C116.471 36.5679 116.354 36.7025 115.903 36.7025C110.384 36.6856 104.881 36.6856 99.362 36.7025C98.8937 36.7025 98.8101 36.5175 98.8268 36.114C98.8435 34.769 98.8602 33.4239 98.8268 32.0789C98.8101 31.625 99.0442 31.356 99.2951 31.0701C102.322 27.6739 105.349 24.2777 108.377 20.8815C108.544 20.7134 108.678 20.5453 108.945 20.2595Z" fill="white"/>
</svg>
