<svg width="238" height="152" viewBox="0 0 238 152" fill="none" xmlns="http://www.w3.org/2000/svg">
<path d="M96.1714 67.2302C97.1428 68.2046 98.1143 69.1789 99.0857 70.1533C100.057 71.1277 100.057 73.0764 100.057 75.0251C100.057 76.9738 100.057 78.9225 99.0857 79.8969C99.0857 82.82 97.1428 83.7943 96.1714 84.7687C94.2285 84.7687 93.2571 85.743 91.3142 85.743C90.3428 85.743 89.3714 85.743 88.4 84.7687C87.4285 84.7687 86.4571 83.7943 85.4857 83.7943V93.5379H79.6571V67.2302H84.5142L85.4857 69.1789C87.4285 67.2302 89.3714 66.2559 92.2857 66.2559C93.2571 66.2559 95.2 66.2559 96.1714 67.2302ZM93.2571 79.8969C94.2285 78.9225 95.2 77.9482 95.2 75.9994C95.2 74.0507 94.2285 73.0764 93.2571 72.102C92.2857 71.1277 91.3143 71.1277 90.3428 71.1277C89.3714 71.1277 88.4 71.1277 87.4285 72.102C86.4571 72.102 86.4571 73.0764 85.4857 74.0507V77.9482C85.4857 78.9225 86.4571 79.8969 87.4285 79.8969C87.4285 80.8712 88.4 80.8712 89.3714 80.8712C91.3142 80.8712 92.2857 80.8712 93.2571 79.8969Z" fill="#8247E5"/>
<path d="M103.943 71.1279C104.914 70.1535 105.886 68.2048 107.829 68.2048C109.771 67.2305 110.743 67.2305 112.686 67.2305C114.629 67.2305 116.571 67.2305 117.543 68.2048C118.514 69.1792 120.457 70.1535 121.429 72.1023C122.4 73.0766 122.4 75.0253 122.4 76.9741C122.4 78.9228 122.4 79.8971 121.429 81.8458C120.457 82.8202 119.486 84.7689 117.543 84.7689C116.571 85.7433 114.629 85.7433 112.686 85.7433C110.743 85.7433 108.8 85.7433 107.829 84.7689C106.857 83.7946 104.914 82.8202 103.943 81.8458C102.971 80.8715 102.971 78.9228 102.971 76.9741C102.971 74.051 102.971 72.1023 103.943 71.1279ZM109.771 79.8971C110.743 80.8715 111.714 80.8715 112.686 80.8715C113.657 80.8715 114.629 79.8971 115.6 79.8971C116.571 79.8971 116.571 77.9484 116.571 75.9997C116.571 74.051 116.571 73.0766 115.6 72.1023C114.629 71.1279 113.657 71.1279 112.686 71.1279C111.714 71.1279 110.743 72.1023 109.771 72.1023C108.8 73.0766 108.8 74.051 108.8 75.9997C108.8 76.9741 108.8 78.9228 109.771 79.8971Z" fill="#8247E5"/>
<path d="M132.114 52.6152V84.7691H126.286V52.6152H132.114Z" fill="#8247E5"/>
<path d="M155.429 67.2305L143.771 93.5382H137.943L141.829 83.7946L134.057 67.2305H140.857L145.714 77.9484L150.571 67.2305C149.6 67.2305 155.429 67.2305 155.429 67.2305Z" fill="#8247E5"/>
<path d="M176.8 67.2302V84.7687C176.8 86.7174 176.8 87.6918 175.829 89.6405C174.857 91.5892 173.886 91.5892 171.943 92.5635C170 93.5379 168.057 93.5379 166.114 93.5379C165.143 93.5379 163.2 93.5379 162.229 92.5635C161.257 92.5635 160.286 91.5892 159.314 91.5892C158.343 91.5892 157.371 90.6148 156.4 89.6405L159.314 85.743C161.257 87.6918 162.229 87.6918 163.2 88.6661C164.171 89.6405 165.143 89.6405 166.114 89.6405C167.086 89.6405 169.029 89.6405 170 88.6661C170.971 87.6918 170.971 86.7174 170.971 85.743V82.82C170 83.7943 170 84.7687 168.057 84.7687C167.086 85.743 165.143 85.743 164.171 85.743C163.2 85.743 161.257 85.743 159.314 84.7687C158.343 83.7943 157.371 82.82 156.4 81.8456C155.429 78.9225 155.429 77.9482 155.429 75.9994C155.429 74.0507 155.429 73.0764 156.4 71.1277C157.371 69.1789 158.343 68.2046 160.286 67.2302C161.257 66.2559 163.2 66.2559 164.171 66.2559C165.143 66.2559 167.086 66.2559 168.057 67.2302C169.029 67.2302 170 68.2046 170.971 69.1789L171.943 68.2046H176.8V67.2302ZM170.971 77.9482V74.0507C170.971 73.0764 170 72.102 169.029 72.102C168.057 72.102 167.086 71.1277 166.114 71.1277C165.143 71.1277 163.2 72.102 162.229 72.102C161.257 73.0764 161.257 74.0507 161.257 75.9994C161.257 76.9738 161.257 78.9225 162.229 79.8969C163.2 80.8712 164.171 81.8456 166.114 81.8456C168.057 80.8712 170 79.8969 170.971 77.9482Z" fill="#8247E5"/>
<path d="M181.657 71.1277C182.629 69.1789 183.6 68.2046 184.571 67.2302C186.514 66.2559 187.486 66.2559 189.429 66.2559C191.371 66.2559 193.314 66.2559 194.286 67.2302C195.257 68.2046 197.2 69.1789 198.171 70.1533C199.143 72.102 199.143 73.0764 199.143 75.0251C199.143 76.9738 199.143 78.9225 198.171 79.8969C197.2 81.8456 196.229 82.82 194.286 83.7943C193.314 84.7687 191.371 84.7687 189.429 84.7687C187.486 84.7687 185.543 84.7687 184.571 83.7943C182.629 82.82 181.657 81.8456 180.686 80.8712C179.714 78.9225 179.714 77.9482 179.714 75.9994C179.714 74.0507 180.686 72.102 181.657 71.1277ZM186.514 79.8969C187.486 80.8712 188.457 80.8712 189.429 80.8712C190.4 80.8712 191.371 79.8969 192.343 79.8969C193.314 79.8969 194.286 76.9738 194.286 75.9994C194.286 74.0507 194.286 73.0764 193.314 72.102C192.343 71.1277 191.371 71.1277 190.4 71.1277C189.429 71.1277 188.457 72.102 187.486 72.102C186.514 73.0764 186.514 74.0507 186.514 75.9994C185.543 76.9738 186.514 78.9225 186.514 79.8969Z" fill="#8247E5"/>
<path d="M220.514 68.2046C221.486 69.1789 222.457 70.1533 222.457 72.102V85.743H216.629V74.0507C216.629 72.102 215.657 71.1277 213.714 71.1277C212.743 71.1277 211.771 72.102 210.8 73.0764C209.829 74.0507 208.857 75.9994 208.857 77.9482V84.7687H204V67.2302H208.857V70.1533C209.829 69.1789 210.8 68.2046 211.771 67.2302C212.743 66.2559 214.686 66.2559 215.657 66.2559C217.6 66.2559 218.571 67.2302 220.514 68.2046Z" fill="#8247E5"/>
<path d="M55.3714 67.2312C54.4 66.2568 53.4286 66.2568 52.4571 67.2312L44.6857 71.1286L39.8286 74.0517L32.0571 78.9235C31.0857 79.8978 30.1143 79.8978 29.1428 78.9235L22.3428 75.026C21.3714 75.026 21.3714 74.0517 21.3714 72.103V65.2824C21.3714 64.3081 22.3428 63.3337 23.3143 62.3594L29.1428 59.4363C30.1143 58.4619 31.0857 58.4619 32.0571 59.4363L37.8857 62.3594C38.8571 63.3337 39.8286 64.3081 39.8286 65.2824V70.1542L44.6857 67.2312V62.3594C44.6857 61.385 43.7143 60.4107 42.7428 59.4363L32.0571 53.5901C31.0857 52.6158 30.1143 52.6158 29.1428 53.5901L17.4857 59.4363C16.5143 60.4107 15.5428 61.385 15.5428 62.3594V75.026C15.5428 76.9748 16.5143 77.9491 17.4857 77.9491L29.1428 84.7696C30.1143 85.744 31.0857 85.744 32.0571 84.7696L39.8286 80.8722L44.6857 77.9491L52.4571 74.0517C53.4286 73.0773 54.4 73.0773 55.3714 74.0517L61.2 76.9748C62.1714 76.9748 63.1428 77.9491 63.1428 78.9235V85.744C63.1428 86.7183 62.1714 87.6927 61.2 88.6671L55.3714 92.5645C54.4 93.5389 53.4286 93.5389 52.4571 92.5645L46.6286 88.6671C45.6571 88.6671 44.6857 87.6927 44.6857 86.7183V81.8465L39.8286 84.7696V89.6414C39.8286 90.6158 40.8 91.5901 41.7714 92.5645L53.4286 99.385C54.4 100.359 55.3714 100.359 56.3428 99.385L68 92.5645C68 91.5901 68.9714 90.6158 68.9714 89.6414V76.0004C68.9714 75.026 68 74.0517 67.0286 73.0773L55.3714 67.2312Z" fill="#8247E5"/>
</svg>
