<svg width="75" height="75" viewBox="0 0 75 75" fill="none" xmlns="http://www.w3.org/2000/svg">
<path d="M37.5 75C58.2107 75 75 58.2107 75 37.5C75 16.7893 58.2107 0 37.5 0C16.7893 0 0 16.7893 0 37.5C0 58.2107 16.7893 75 37.5 75Z" fill="#FD0000"/>
<path d="M35.1708 27.6427C33.3884 26.2197 31.3265 25.5566 29.0879 25.3119C25.3117 24.8981 21.8375 25.6896 18.8255 28.0309C15.3181 30.7604 13.72 34.4536 13.7608 38.8552C13.8031 43.4275 16.3573 47.3141 20.2439 48.808C23.5383 50.0708 26.8902 50.0738 30.2133 48.9862C35.6662 47.1947 39.1253 42.1738 39.1253 36.2677C39.1797 32.7784 37.9426 29.8601 35.1708 27.6427ZM28.949 43.2689C25.6576 45.1374 20.4236 43.6405 20.3391 38.6271C20.3391 38.5531 20.327 38.4761 20.3179 38.402C19.8904 33.5911 24.2679 29.9084 28.8735 31.2679C30.822 31.8464 32.0214 33.2965 32.4383 35.2738C33.0908 38.3779 31.8477 41.624 28.949 43.2689Z" fill="white"/>
<path d="M61.0051 31.0247C60.4342 28.3722 58.6895 26.7544 56.0643 26.1291C53.9133 25.617 51.7125 25.8179 49.7669 25.7832C48.1461 25.7832 46.7625 25.7907 45.3774 25.7832C45.0345 25.7832 44.8759 25.8285 44.8109 26.2363C44.3351 29.3238 43.808 32.4023 43.314 35.4852C42.6146 39.8657 41.9395 44.2341 41.225 48.6025C41.1479 49.0753 41.2582 49.1614 41.6902 49.1569C43.4016 49.1403 45.113 49.1297 46.826 49.1569C47.3441 49.1674 47.4589 48.9288 47.5238 48.5028C47.8833 46.1751 48.2791 43.8535 48.6084 41.5212C48.6718 41.0681 48.8304 41.0061 49.2126 41.0077C50.9481 41.0167 52.6868 41.053 54.4163 40.8898C56.1458 40.7267 57.7152 40.2056 58.9191 38.9095C61.0036 36.6649 61.6381 33.9717 61.0051 31.0247ZM53.3861 35.6483C52.6657 35.8651 51.9143 35.9605 51.1626 35.9308C49.4633 36.0079 49.4784 36.0109 49.7367 34.5109C49.921 33.4536 50.0675 32.3796 50.2065 31.3086C50.2654 30.8555 50.4421 30.6682 50.93 30.6954C51.782 30.7452 52.6414 30.7044 53.4677 30.9627C54.6414 31.3283 55.1821 32.0609 55.17 33.2285C55.1549 34.6076 54.6474 35.2828 53.3861 35.6483Z" fill="white"/>
</svg>
