<svg width="118" height="80" viewBox="0 0 118 80" fill="none" xmlns="http://www.w3.org/2000/svg">
<path d="M10.6581 74.2544C10.6581 74.5115 10.4403 74.7207 10.1802 74.7207H0.972192C1.20209 76.9689 2.91422 79.0197 5.32209 79.0197C6.96767 79.0197 8.18975 78.3979 9.10934 77.1004C9.24244 76.921 9.44209 76.8074 9.69619 76.9151C9.83533 76.9749 9.93213 77.1004 9.95633 77.2439C9.98053 77.3934 9.93818 77.4771 9.89583 77.5608C8.97019 79.1572 7.12497 79.9405 5.31604 79.9405C2.21848 79.9405 0.0102539 77.2021 0.0102539 74.2723C0.0102539 71.3426 2.21848 68.6042 5.31604 68.6042C8.4136 68.5982 10.6521 71.3306 10.6581 74.2544ZM9.67199 73.8119C9.47234 71.5638 7.72996 69.513 5.32209 69.513C2.91422 69.513 1.20209 71.5638 0.972192 73.8119H9.67199ZM21.8323 68.8254C22.0985 68.8254 22.2921 69.0526 22.2921 69.2798C22.2921 69.5429 22.0925 69.7342 21.8323 69.7342H19.364V79.3067C19.364 79.5339 19.1643 79.7611 18.9042 79.7611C18.638 79.7611 18.4444 79.5339 18.4444 79.3067V69.7342H16.0728C15.8066 69.7342 15.613 69.5369 15.613 69.2798C15.613 69.0526 15.8127 68.8254 16.0728 68.8254H18.4444V65.3216C18.4444 65.1004 18.5956 64.8971 18.8134 64.8613C19.122 64.8134 19.364 65.0227 19.364 65.3097V68.8254H21.8323ZM36.8906 73.4532V79.2529C36.8906 79.516 36.6607 79.7073 36.4308 79.7073C36.1646 79.7073 35.971 79.51 35.971 79.2529V73.4532C35.971 71.498 34.8518 69.5429 32.6436 69.5429C29.8122 69.5429 28.5901 71.9883 28.7535 74.4935C28.7535 74.5593 28.7837 74.8523 28.7837 74.8822V79.2349C28.7837 79.4562 28.6325 79.6595 28.4147 79.6953C28.1061 79.7432 27.8641 79.5339 27.8641 79.2469V60.1976C27.8641 59.9704 28.0638 59.7432 28.3239 59.7432C28.5901 59.7432 28.7837 59.9704 28.7837 60.1976V70.9778C29.5762 69.5787 30.9919 68.634 32.6375 68.634C35.3418 68.634 36.8906 70.9778 36.8906 73.4532ZM53.4008 74.2544C53.4008 74.5115 53.183 74.7207 52.9229 74.7207H43.7089C43.9388 76.9689 45.6509 79.0197 48.0588 79.0197C49.7043 79.0197 50.9264 78.3979 51.846 77.1004C51.9791 76.921 52.1788 76.8074 52.4329 76.9151C52.572 76.9749 52.6688 77.1004 52.693 77.2439C52.7172 77.3934 52.6749 77.4771 52.6325 77.5608C51.7069 79.1572 49.8616 79.9405 48.0527 79.9405C44.9551 79.9405 42.7469 77.2021 42.7469 74.2723C42.7469 71.3426 44.9551 68.6042 48.0527 68.6042C51.1563 68.5982 53.3948 71.3306 53.4008 74.2544ZM52.4087 73.8119C52.209 71.5638 50.4666 69.513 48.0588 69.513C45.6509 69.513 43.9388 71.5638 43.7089 73.8119H52.4087ZM64.7021 69.2499C64.7021 69.5429 64.5388 69.7043 64.2726 69.7402C61.5682 70.1288 60.3522 72.3112 60.3522 74.8523V79.205C60.3522 79.4263 60.201 79.6296 59.9832 79.6654C59.6746 79.7133 59.4326 79.504 59.4326 79.217V69.2977C59.4326 69.0765 59.5839 68.8732 59.8017 68.8373C60.1102 68.7895 60.3522 68.9988 60.3522 69.2858V71.3067C61.1084 70.0391 62.627 68.8314 64.206 68.8314C64.4359 68.8254 64.7021 68.9928 64.7021 69.2499ZM79.8269 74.2544C79.8269 74.5115 79.6091 74.7207 79.349 74.7207H70.141C70.3709 76.9689 72.083 79.0197 74.4909 79.0197C76.1365 79.0197 77.3586 78.3979 78.2781 77.1004C78.4112 76.921 78.6109 76.8074 78.865 76.9151C79.0041 76.9749 79.1009 77.1004 79.1251 77.2439C79.1493 77.3934 79.107 77.4771 79.0646 77.5608C78.139 79.1572 76.2938 79.9405 74.4848 79.9405C71.3873 79.9405 69.179 77.2021 69.179 74.2723C69.179 71.3426 71.3873 68.6042 74.4848 68.6042C77.5824 68.5982 79.8209 71.3306 79.8269 74.2544ZM78.8408 73.8119C78.6411 71.5638 76.8988 69.513 74.4909 69.513C72.083 69.513 70.3709 71.5638 70.141 73.8119H78.8408ZM94.6916 69.3635V79.3067C94.6916 79.5698 94.4617 79.7611 94.2318 79.7611C93.9656 79.7611 93.772 79.5638 93.772 79.3067V77.4173C93.0158 78.9181 91.6606 79.9883 89.9484 79.9883C87.2139 79.9883 85.6953 77.6445 85.6953 75.1692V69.3396C85.6953 69.1124 85.895 68.8852 86.1551 68.8852C86.4213 68.8852 86.6149 69.1124 86.6149 69.3396V75.1692C86.6149 77.1243 87.7342 79.0795 89.9424 79.0795C93.04 79.0795 93.7659 76.2155 93.7659 73.0526V69.3396C93.7659 69.0765 94.0321 68.8074 94.3588 68.9031C94.5585 68.9689 94.6916 69.1602 94.6916 69.3635ZM117.984 73.4173V79.2469C117.984 79.51 117.754 79.7013 117.524 79.7013C117.258 79.7013 117.064 79.504 117.064 79.2469V73.4173C117.064 71.4621 115.945 69.5429 113.737 69.5429C110.966 69.5429 109.913 72.4726 109.913 74.7506V79.2469C109.913 79.51 109.683 79.7013 109.453 79.7013C109.187 79.7013 108.994 79.504 108.994 79.2469V73.4173C108.994 71.4621 107.874 69.5429 105.666 69.5429C102.865 69.5429 101.709 71.7252 101.812 74.6251C101.812 74.6908 101.843 74.8224 101.812 74.8523V79.2349C101.812 79.4562 101.661 79.6595 101.437 79.6953C101.129 79.7432 100.887 79.5339 100.887 79.2469V69.2977C100.887 69.0765 101.038 68.8732 101.256 68.8373C101.564 68.7895 101.806 68.9988 101.806 69.2858V70.9479C102.599 69.5488 104.015 68.634 105.66 68.634C107.536 68.634 108.988 69.8059 109.58 71.5339C110.337 69.8418 111.819 68.634 113.731 68.634C116.435 68.634 117.984 70.942 117.984 73.4173Z" fill="white"/>
<ellipse cx="59" cy="28.3874" rx="27.8791" ry="27.7419" fill="#D9D9D9"/>
<g opacity="0.6">
<path d="M58.9914 23.166L46.033 28.9904L58.9914 36.5566L71.9447 28.9904L58.9914 23.166Z" fill="#010101"/>
</g>
<g opacity="0.45">
<path d="M46.033 28.991L58.9914 36.5572V7.74219L46.033 28.991Z" fill="#010101"/>
</g>
<g opacity="0.8">
<path d="M58.9912 7.74219V36.5572L71.9445 28.991L58.9912 7.74219Z" fill="#010101"/>
</g>
<g opacity="0.45">
<path d="M46.033 31.417L58.9914 49.4591V38.9832L46.033 31.417Z" fill="#010101"/>
</g>
<g opacity="0.8">
<path d="M58.9912 38.9832V49.4591L71.9547 31.417L58.9912 38.9832Z" fill="#010101"/>
</g>
</svg>
