<svg width="177" height="48" viewBox="0 0 177 48" fill="none" xmlns="http://www.w3.org/2000/svg">
<path d="M49.3904 5.7832H57.5309C59.6 5.7832 61.1173 6.33485 62.0828 7.30023C62.5219 7.67378 62.8732 8.13956 63.1116 8.66438C63.35 9.1892 63.4697 9.76015 63.4622 10.3365C63.4848 10.8005 63.4383 11.2653 63.3243 11.7156C63.0414 12.4398 62.6154 13.0995 62.0717 13.6553C61.8298 13.8856 61.5497 14.0722 61.2441 14.2069C62.1875 14.4928 63.0421 15.015 63.7269 15.724C64.2787 16.4135 64.5546 17.241 64.5546 18.4822C64.5642 19.1932 64.4232 19.8983 64.1407 20.5509C63.7963 21.1505 63.3257 21.6682 62.7614 22.0679C62.0998 22.4474 61.4077 22.7711 60.6923 23.0355C59.8647 23.3114 58.8991 23.3114 57.9336 23.3114H49.5261V5.7832H49.3904ZM56.8412 12.9568C57.5511 12.9529 58.2535 12.8124 58.9103 12.5431C59.1636 12.4139 59.3756 12.2161 59.5219 11.9722C59.6683 11.7284 59.7431 11.4483 59.7379 11.164C59.74 10.896 59.6786 10.6313 59.5587 10.3916C59.4389 10.1519 59.2639 9.94398 59.0482 9.78487C58.7743 9.58253 58.4603 9.44096 58.1273 9.36961C57.7943 9.29827 57.4499 9.29879 57.1171 9.37114H53.2526V13.1037H56.839L56.8412 12.9568ZM57.8068 19.9904C58.5166 19.9864 59.2191 19.8459 59.8758 19.5766C60.1493 19.4434 60.3677 19.219 60.4936 18.9421C60.6195 18.6653 60.6449 18.3532 60.5655 18.0596C60.5676 17.7916 60.5062 17.5269 60.3864 17.2872C60.2665 17.0475 60.0915 16.8396 59.8758 16.6805C59.2035 16.3006 58.4408 16.11 57.6688 16.1288H53.1147V19.9992L57.8068 19.9904Z" fill="#F3BA2F"/>
<path d="M69.3936 5.79199H73.2558V23.4492H69.3936V5.79199Z" fill="#F3BA2F"/>
<path d="M79.187 5.79199H82.7756L91.0518 16.6893V5.79199H94.9141V23.4492H91.6036L82.9135 12.2761V23.4492H79.187V5.79199Z" fill="#F3BA2F"/>
<path d="M106.641 5.6543H110.227L117.816 23.4494H113.812L112.156 19.4455H104.71L103.055 23.4494H99.05L106.641 5.6543ZM110.781 16.1378L108.434 10.3544L106.089 16.1378H110.781Z" fill="#F3BA2F"/>
<path d="M121.954 5.79199H125.54L133.819 16.6893V5.79199H137.681V23.4492H134.371L125.816 12.2761V23.4492H121.954V5.79199Z" fill="#F3BA2F"/>
<path d="M151.753 23.7252C150.526 23.7095 149.312 23.476 148.167 23.0357C145.997 22.1057 144.268 20.3764 143.339 18.2065C142.898 17.0615 142.665 15.8475 142.649 14.6208C142.687 12.2081 143.625 9.89648 145.279 8.13896C146.093 7.29502 147.08 6.63583 148.171 6.20597C149.349 5.71198 150.619 5.47682 151.895 5.51641C152.634 5.49359 153.373 5.53976 154.102 5.65432C154.723 5.75452 155.328 5.94016 155.898 6.20597C156.419 6.45249 156.926 6.72877 157.415 7.03344C157.908 7.36125 158.37 7.73354 158.794 8.14563L156.45 11.0373C155.793 10.4868 155.101 9.98 154.378 9.5203C153.661 9.12838 152.85 8.93777 152.033 8.96865C151.324 8.97264 150.621 9.11311 149.964 9.38239C149.307 9.63352 148.734 10.0635 148.309 10.6236C147.859 11.1682 147.485 11.7713 147.197 12.4164C146.927 13.0731 146.787 13.7754 146.783 14.4851C146.789 15.2369 146.931 15.9814 147.201 16.6828C147.436 17.3546 147.816 17.9666 148.313 18.4757C148.78 19.0013 149.354 19.4209 149.996 19.7063C150.639 19.9918 151.335 20.1364 152.038 20.1306C152.943 20.1471 153.839 19.9585 154.661 19.579C155.405 19.1526 156.099 18.6437 156.73 18.0619L159.213 20.5444L157.833 21.9235C157.313 22.2975 156.759 22.6215 156.178 22.8911C155.566 23.2034 154.916 23.4352 154.245 23.5806C153.422 23.6881 152.592 23.7342 151.762 23.7185L151.753 23.7252Z" fill="#F3BA2F"/>
<path d="M163.618 5.79199H176.862V9.24201H167.342V12.8277H175.759V16.2755H167.342V19.9991H177V23.4492H163.618V5.79199Z" fill="#F3BA2F"/>
<path d="M54.3561 40.8289C53.4064 40.8597 52.4623 40.6709 51.5974 40.2773C50.7675 40.0014 49.9399 39.4498 49.1123 38.7602L50.4917 37.2432C51.0434 37.7948 51.6041 38.0707 52.2871 38.4844C52.9439 38.7537 53.6463 38.8941 54.3561 38.8981C54.9327 38.892 55.4998 38.7503 56.0114 38.4844C56.1919 38.3628 56.3378 38.1963 56.4345 38.0013C56.5312 37.8063 56.5756 37.5895 56.5631 37.3722C56.5836 37.1778 56.5347 36.9825 56.4252 36.8206C56.2873 36.6804 56.1493 36.4046 56.0114 36.2667L55.1749 35.8618C54.7611 35.7239 54.2093 35.586 53.7955 35.4481C53.18 35.3278 52.579 35.1428 52.0023 34.8965C51.5463 34.7509 51.1236 34.5166 50.7586 34.2069C50.4494 33.9153 50.172 33.5917 49.931 33.2415C49.7181 32.7655 49.6234 32.245 49.6552 31.7245C49.6799 31.2089 49.7727 30.6988 49.931 30.2075C50.069 29.7937 50.4828 29.38 50.7586 29.0953C51.1741 28.7845 51.6421 28.5509 52.1402 28.4057C52.6788 28.247 53.2346 28.1544 53.7955 28.1299C54.6435 28.1346 55.4851 28.2773 56.2873 28.5525C57.0048 28.8689 57.6966 29.2407 58.3563 29.6647L57.2439 31.3197C56.7234 30.9471 56.1693 30.6239 55.5887 30.3543C55.0369 30.0784 54.4763 30.0784 53.9334 30.0784C53.3984 30.0675 52.8715 30.2112 52.4161 30.4922C52.0987 30.7802 51.9016 31.1774 51.8644 31.6044C51.843 31.8427 51.8909 32.0821 52.0023 32.2939C52.1402 32.4318 52.2782 32.7077 52.4161 32.8456C52.7267 33.0085 53.0495 33.1468 53.3817 33.2593C53.8771 33.4326 54.3841 33.5709 54.899 33.6731C55.5094 33.8129 56.1087 33.9972 56.6922 34.2247C57.1336 34.4009 57.5508 34.6326 57.9336 34.9143C58.2081 35.2017 58.4403 35.5268 58.6233 35.8796C58.7946 36.3206 58.888 36.788 58.8992 37.261C58.8869 37.7779 58.7938 38.2898 58.6233 38.778C58.3454 39.2241 58.0218 39.6401 57.6577 40.0192C57.2431 40.33 56.7758 40.5636 56.2784 40.7088C55.5976 40.691 54.9079 40.8289 54.3561 40.8289Z" fill="#F3BA2F"/>
<path d="M61.2529 28.2764H63.5979L67.3244 34.0687L71.1866 28.2764H73.5316V40.6907H71.3246V31.7242L67.4623 37.5165H67.3244L63.4599 31.7242V40.6907H61.2529V28.2764Z" fill="#F3BA2F"/>
<path d="M80.9824 28.1387H83.0514L88.431 40.553H86.086L84.8446 37.5189H79.049L77.8076 40.553H75.6006L80.9824 28.1387ZM84.1549 35.7238L81.9479 30.759L79.87 35.7238H84.1549Z" fill="#F3BA2F"/>
<path d="M90.6379 28.2764H96.1576C96.8547 28.3003 97.5477 28.3927 98.2267 28.5522C98.8066 28.7393 99.3289 29.0716 99.744 29.5176C100.083 29.8858 100.362 30.3046 100.572 30.7588C100.742 31.247 100.835 31.7588 100.848 32.2758C100.822 32.7464 100.73 33.2109 100.572 33.6549C100.434 34.0687 100.158 34.3445 100.02 34.7671C99.7282 35.0763 99.4046 35.3537 99.0543 35.5946C98.6682 35.8353 98.2503 36.0209 97.8129 36.1462L101.123 40.8375H98.5026L95.4657 36.5511H92.707V40.8286H90.5L90.6379 28.2764ZM96.0197 34.3445C96.7094 34.3445 97.3991 34.2066 97.8129 33.7928C98.2307 33.3956 98.478 32.8517 98.5026 32.2758C98.478 31.6999 98.2307 31.156 97.8129 30.7588C97.248 30.3716 96.5727 30.178 95.8884 30.2071H92.707V34.3445H96.0197Z" fill="#F3BA2F"/>
<path d="M106.503 30.2071H102.503V28.2764H112.575V30.2071H108.572V40.6907H106.365L106.503 30.2071Z" fill="#F3BA2F"/>
<path d="M125.956 40.8287C125.098 40.8439 124.247 40.6549 123.476 40.277C121.959 39.5875 120.717 38.4842 120.165 36.9671C119.889 36.1374 119.614 35.31 119.752 34.4825C119.754 33.6381 119.894 32.7997 120.165 32.0001C120.463 31.2358 120.909 30.5377 121.477 29.9461C122.045 29.3544 122.724 28.8807 123.476 28.5523C124.303 28.2765 125.131 28.0006 126.099 28.0006C126.609 27.9715 127.12 28.0179 127.616 28.1385L128.858 28.5523C129.271 28.6902 129.547 28.966 129.97 29.1039C130.246 29.3797 130.66 29.6556 130.936 29.9314L129.556 31.5863C129.111 31.1397 128.599 30.7645 128.039 30.4741C127.435 30.1919 126.774 30.0504 126.108 30.0604C125.546 30.0849 124.99 30.1775 124.45 30.3362C123.939 30.577 123.472 30.9035 123.071 31.3016C122.669 31.6727 122.382 32.1514 122.243 32.6807C122.085 33.2192 121.992 33.7749 121.967 34.3357C121.992 34.8965 122.085 35.4522 122.243 35.9906C122.382 36.5207 122.669 37 123.071 37.372C123.472 37.7701 123.939 38.0966 124.45 38.3373C124.951 38.6277 125.54 38.7257 126.108 38.6132C126.774 38.6232 127.435 38.4817 128.039 38.1994C128.654 37.8769 129.212 37.4579 129.694 36.9582L131.074 38.3373L130.108 39.3027C129.694 39.5786 129.418 39.8544 128.996 39.9923C128.573 40.1302 128.168 40.406 127.616 40.406C127.064 40.8198 126.504 40.8198 125.961 40.8198L125.956 40.8287Z" fill="#F3BA2F"/>
<path d="M133.267 28.2764H135.336V33.3791H141.27V28.2764H143.477V40.6907H141.27V35.4478H135.336V40.6907H133.267V28.2764Z" fill="#F3BA2F"/>
<path d="M151.063 28.1387H153.132L158.514 40.553H156.18L154.939 37.5189H149.154L147.913 40.553H145.706L151.063 28.1387ZM154.098 35.7238L152.029 30.759L149.951 35.7238H154.098Z" fill="#F3BA2F"/>
<path d="M160.721 28.2764H162.928V40.6907H160.721V28.2764Z" fill="#F3BA2F"/>
<path d="M166.239 28.2764H168.17L174.793 36.8269V28.2764H177V40.6907H175.207L168.446 31.8621V40.6907H166.239V28.2764Z" fill="#F3BA2F"/>
<path d="M25.109 39.8632V45.2418L20.4169 48L15.865 45.2418V39.8632L20.4169 42.6214L25.109 39.8632ZM0 21.2407L4.55192 24.0011V33.2412L12.4166 37.9324V43.311L0 35.9994V21.2407ZM40.8361 21.2407V35.9994L28.2816 43.311V37.9324L36.144 33.2412V24.0011L40.8361 21.2407ZM28.2816 13.9313L32.9714 16.6829V22.0681L25.109 26.7593V36.1374L20.5549 38.8978L16.0029 36.1374V26.7593L7.86464 22.0681V16.6829L12.5545 13.9246L20.4169 18.6203L28.2816 13.9313ZM7.86464 25.943L12.4166 28.6946V34.0731L7.86464 31.3149V25.943ZM32.9714 25.943V31.3216L28.4195 34.0798V28.6946L32.9714 25.943ZM4.55192 9.26011L9.24401 12.0117L4.55192 14.7588V20.1374L0 17.3791V12.0117L4.55192 9.26011ZM36.2819 9.26011L40.974 12.0117V17.3791L36.2819 20.1374V14.7588L31.73 12.0117L36.2819 9.26011ZM20.4169 9.26011L25.109 12.0117L20.4169 14.7588L15.865 12.0117L20.4169 9.26011ZM20.4169 0L32.9714 7.30933L28.4195 10.0698L20.5549 5.37856L12.5456 10.0698L8.00925 7.30933L20.4169 0Z" fill="#F3BA2F"/>
</svg>
