<svg width="46" height="46" viewBox="0 0 46 46" fill="none" xmlns="http://www.w3.org/2000/svg">
<path d="M23.1149 45.6406C27.4078 45.6406 31.4219 44.443 34.8399 42.3703L45.7555 45.6406L41.2711 36.5297C44.0875 32.7563 45.7555 28.0695 45.7555 23C45.7555 10.4984 35.6164 0.359375 23.1149 0.359375C10.6133 0.359375 0.474243 10.4984 0.474243 23C0.474243 35.5016 10.6133 45.6406 23.1149 45.6406ZM14.7914 18.193C14.8406 16.3609 15.0594 14.9664 15.4422 14.0094C15.825 13.0523 16.4375 12.1992 17.2742 11.45C18.1164 10.7008 19.0516 10.143 20.0797 9.7875C21.1078 9.43203 22.2016 9.25156 23.3446 9.25156C25.6633 9.25156 27.5883 9.93516 29.1305 11.2969C30.6727 12.6586 31.4438 14.4742 31.4438 16.7383C31.4438 17.7555 31.2469 18.6797 30.8531 19.5055C30.4594 20.3313 29.6172 21.3648 28.3321 22.6008C27.0469 23.8367 26.1938 24.7117 25.7727 25.2367C25.3516 25.7563 25.0344 26.3797 24.8156 27.107C24.5969 27.8344 24.5039 28.8078 24.5313 30.0273H21.168C21.168 28.6 21.2828 27.4625 21.5125 26.6094C21.7422 25.7563 22.0867 25.0125 22.5461 24.3727C23.0055 23.7383 23.8313 22.7977 25.0289 21.5672C26.2266 20.3312 26.9977 19.4344 27.3422 18.8766C27.6867 18.3188 27.8563 17.482 27.8563 16.3773C27.8563 15.2672 27.4625 14.2883 26.675 13.4352C25.8875 12.582 24.7391 12.1555 23.2352 12.1555C19.85 12.1555 18.1547 14.168 18.1547 18.1875H14.7914V18.193ZM24.7938 37.0219H21.0914V33.1281H24.7938V37.0219Z" fill="black"/>
</svg>
