<svg width="44" height="39" viewBox="0 0 44 39" fill="none" xmlns="http://www.w3.org/2000/svg">
<path d="M39.5209 11.707C39.5209 11.2943 39.513 10.8862 39.4947 10.4809C41.259 9.16629 42.7898 7.52063 44.0006 5.63748C42.3564 6.37731 40.6068 6.85598 38.8149 7.05621C40.6798 5.90857 42.1101 4.07315 42.7859 1.87055C41.0397 2.92955 39.1082 3.68665 37.0546 4.08114C35.409 2.20878 33.0608 1.01621 30.4649 0.971892C25.4793 0.889469 21.4378 5.10258 21.4378 10.3809C21.4378 11.1312 21.5163 11.8588 21.672 12.5614C14.1644 12.0783 7.51169 8.17039 3.06155 2.27925C2.28506 3.69068 1.83957 5.34023 1.83957 7.10797C1.83957 10.4515 3.43331 13.4231 5.85485 15.1766C4.3724 15.1096 2.98371 14.6606 1.76568 13.9245V14.0472C1.76568 18.7202 4.87835 22.6355 9.0085 23.5489C8.25132 23.7643 7.45271 23.8764 6.63135 23.8723C6.06068 23.8694 5.49186 23.8071 4.93408 23.6865C6.08171 27.5159 9.41712 30.3136 13.3659 30.4068C10.2754 32.9693 6.38237 34.4999 2.15568 34.4892C1.42691 34.4892 0.70676 34.4403 0.000732422 34.3517C3.99731 37.0931 8.74136 38.6898 13.8412 38.6898C30.4422 38.6938 39.5209 24.2441 39.5209 11.707Z" fill="#231815"/>
</svg>
