<svg width="23" height="23" viewBox="0 0 23 23" fill="none" xmlns="http://www.w3.org/2000/svg">
<circle cx="11.1596" cy="11.1595" r="11.1595" fill="white"/>
<g clip-path="url(#clip0_210_324)">
<path d="M12.4924 15.9323V17.5505L11.1393 18.3804L9.82662 17.5505V15.9323L11.1393 16.7621L12.4924 15.9323ZM5.25153 10.3293L6.5642 11.1599V13.9399L8.83218 15.3514V16.9696L5.25153 14.7698V10.3293ZM17.0277 10.3293V14.7698L13.4073 16.9696V15.3514L15.6746 13.9399V11.1599L17.0277 10.3293ZM13.4073 8.13016L14.7597 8.95803V10.5783L12.4924 11.9897V14.8113L11.1791 15.6418L9.8664 14.8113V11.9897L7.51951 10.5783V8.95803L8.87195 8.12816L11.1393 9.54094L13.4073 8.13016ZM7.51951 11.7441L8.83218 12.572V14.1902L7.51951 13.3603V11.7441ZM14.7597 11.7441V13.3624L13.4471 14.1922V12.572L14.7597 11.7441ZM6.5642 6.72474L7.91728 7.5526L6.5642 8.37913V9.99737L5.25153 9.1675V7.5526L6.5642 6.72474ZM15.7144 6.72474L17.0675 7.5526V9.1675L15.7144 9.99737V8.37913L14.4017 7.5526L15.7144 6.72474ZM11.1393 6.72474L12.4924 7.5526L11.1393 8.37913L9.82662 7.5526L11.1393 6.72474ZM11.1393 3.93866L14.7597 6.13781L13.4471 6.96835L11.1791 5.5569L8.86939 6.96835L7.56121 6.13781L11.1393 3.93866Z" fill="#F3BA2F"/>
</g>
<defs>
<clipPath id="clip0_210_324">
<rect width="11.816" height="14.4417" fill="white" transform="translate(5.25153 3.93866)"/>
</clipPath>
</defs>
</svg>
