<svg width="67" height="63" viewBox="0 0 67 63" fill="none" xmlns="http://www.w3.org/2000/svg">
<path d="M65.447 0L36.6978 21.3358L42.044 8.76193L65.447 0Z" fill="#E17726"/>
<path d="M1.62021 0.0250778L24.9605 8.76347L30.0369 21.5022L1.62021 0.0250778Z" fill="#E27625"/>
<path d="M53.8774 45.3752L66.584 45.6178L62.1433 60.7489L46.6384 56.4671L53.8774 45.3752Z" fill="#E27625"/>
<path d="M13.1223 45.3752L20.3346 56.4671L4.85567 60.7491L0.441895 45.6178L13.1223 45.3752Z" fill="#E27625"/>
<path d="M29.3467 18.2573L29.8661 35.0792L14.3276 34.3701L18.7474 27.6823L18.8034 27.6178L29.3467 18.2573Z" fill="#E27625"/>
<path d="M37.4923 18.0697L48.1966 27.6185L48.2519 27.6825L52.6718 34.3703L37.1369 35.0792L37.4923 18.0697Z" fill="#E27625"/>
<path d="M20.7896 45.424L29.2741 52.0545L19.4183 56.8272L20.7896 45.424Z" fill="#E27625"/>
<path d="M46.2119 45.423L47.5547 56.8272L37.7266 52.0541L46.2119 45.423Z" fill="#E27625"/>
<path d="M37.9435 51.4294L47.9168 56.2731L38.6396 60.6953L38.7359 57.7725L37.9435 51.4294Z" fill="#D5BFB2"/>
<path d="M29.0537 51.4316L28.2923 57.7247L28.3548 60.6919L19.0559 56.2731L29.0537 51.4316Z" fill="#D5BFB2"/>
<path d="M26.1737 37.2747L28.7799 42.7683L19.9067 40.1613L26.1737 37.2747Z" fill="#233447"/>
<path d="M40.8259 37.2752L47.1224 40.1611L38.2204 42.7675L40.8259 37.2752Z" fill="#233447"/>
<path d="M21.4679 45.368L20.0335 57.1909L12.3461 45.6264L21.4679 45.368Z" fill="#CC6228"/>
<path d="M45.5328 45.368L54.6548 45.6265L46.9385 57.1913L45.5328 45.368Z" fill="#CC6228"/>
<path d="M52.8966 33.7017L46.258 40.4876L41.1397 38.1416L38.6891 43.3086L37.0826 34.4233L52.8966 33.7017Z" fill="#CC6228"/>
<path d="M14.1002 33.7016L29.917 34.4233L28.3105 43.3086L25.8594 38.1423L20.768 40.4877L14.1002 33.7016Z" fill="#CC6228"/>
<path d="M13.6527 32.3092L21.1636 39.9534L21.4239 47.5L13.6527 32.3092Z" fill="#E27525"/>
<path d="M53.3549 32.2953L45.5698 47.5133L45.8629 39.9532L53.3549 32.2953Z" fill="#E27525"/>
<path d="M29.5498 32.7746L29.8521 34.683L30.5991 39.4371L30.1189 54.0387L27.8484 42.3091L27.8477 42.1878L29.5498 32.7746Z" fill="#E27525"/>
<path d="M37.4462 32.7483L39.1529 42.1878L39.1521 42.3091L36.876 54.0681L36.7859 51.1269L36.4308 39.3506L37.4462 32.7483Z" fill="#E27525"/>
<path d="M46.5306 39.6496L46.2764 46.2063L38.3531 52.3979L36.7514 51.2629L38.5468 41.9873L46.5306 39.6496Z" fill="#F5841F"/>
<path d="M20.4969 39.6497L28.4531 41.9875L30.2485 51.2629L28.6468 52.3979L20.7231 46.2057L20.4969 39.6497Z" fill="#F5841F"/>
<path d="M17.5399 54.8251L27.6768 59.6425L27.6339 57.5854L28.482 56.8387H38.5147L39.3936 57.5829L39.3288 59.6386L49.4014 54.8373L44.5001 58.8996L38.5733 62.9825H28.4008L22.4779 58.8829L17.5399 54.8251Z" fill="#C0AC9D"/>
<path d="M37.2173 50.7883L38.6505 51.8038L39.4905 58.525L38.275 57.4956H28.7287L27.5363 58.5457L28.3486 51.8043L29.7824 50.7883H37.2173Z" fill="#161616"/>
<path d="M63.5491 0.590569L67 10.9744L64.8448 21.4735L66.3795 22.6609L64.3028 24.2501L65.8635 25.459L63.7969 27.3468L65.0657 28.2684L61.6985 32.2126L47.8876 28.1795L47.7679 28.1151L37.8155 19.6945L63.5491 0.590569Z" fill="#763E1A"/>
<path d="M3.45103 0.590569L29.1847 19.6945L19.2322 28.1151L19.1126 28.1795L5.30157 32.2126L1.93442 28.2683L3.2022 27.3474L1.13652 25.459L2.69428 24.2514L0.5866 22.6577L2.17915 21.4695L0 10.9748L3.45103 0.590569Z" fill="#763E1A"/>
<path d="M47.2119 27.2975L61.8454 31.5707L66.5996 46.2669L54.0571 46.2668L45.4149 46.3762L51.6998 34.0891L47.2119 27.2975Z" fill="#F5841F"/>
<path d="M19.788 27.2975L15.2992 34.0891L21.585 46.3762L12.9471 46.2669H0.426727L5.15425 31.5708L19.788 27.2975Z" fill="#F5841F"/>
<path d="M42.7606 8.69183L38.6676 19.7795L37.799 34.758L37.4666 39.4527L37.4402 51.4457H29.5595L29.534 39.4752L29.2005 34.7538L28.3315 19.7795L24.2391 8.69183H42.7606Z" fill="#F5841F"/>
</svg>
