<svg width="95" height="95" viewBox="0 0 95 95" fill="none" xmlns="http://www.w3.org/2000/svg">
<path d="M87.4611 1H7.53894C3.92758 1 1 3.92758 1 7.53894V87.4611C1 91.0724 3.92758 94 7.53894 94H87.4611C91.0724 94 94 91.0724 94 87.4611V7.53894C94 3.92758 91.0724 1 87.4611 1Z" stroke="#1A1A1A" stroke-width="2" stroke-linecap="round" stroke-linejoin="round"/>
<path d="M77.6977 25.9141H18.8022C15.0792 25.9141 12.061 28.9322 12.061 32.6552V68.4678C12.061 72.1908 15.0792 75.209 18.8022 75.209H77.6977C81.4207 75.209 84.4389 72.1908 84.4389 68.4678V32.6552C84.4389 28.9322 81.4207 25.9141 77.6977 25.9141Z" stroke="#1A1A1A" stroke-width="2" stroke-linecap="round" stroke-linejoin="round"/>
<path d="M33.2171 42.5052C33.2171 38.7868 30.2027 35.7725 26.4843 35.7725C22.7659 35.7725 19.7516 38.7868 19.7516 42.5052C19.7516 46.2236 22.7659 49.238 26.4843 49.238C30.2027 49.238 33.2171 46.2236 33.2171 42.5052Z" stroke="#1A1A1A" stroke-width="2" stroke-linecap="round" stroke-linejoin="round"/>
<path d="M21.1953 55.7324H64.7209" stroke="#1A1A1A" stroke-width="2" stroke-linecap="round" stroke-linejoin="round"/>
<path d="M21.1953 61.4404H64.7209" stroke="#1A1A1A" stroke-width="2" stroke-linecap="round" stroke-linejoin="round"/>
<path d="M21.1953 67.1533H64.7209" stroke="#1A1A1A" stroke-width="2" stroke-linecap="round" stroke-linejoin="round"/>
</svg>
