<svg width="23" height="23" viewBox="0 0 23 23" fill="none" xmlns="http://www.w3.org/2000/svg">
<circle cx="11.1595" cy="11.1595" r="11.1595" fill="white"/>
<g clip-path="url(#clip0_210_357)">
<path d="M10.0406 7.57547C9.13285 7.1169 8.19147 7.1482 7.2501 7.41897C6.53094 7.62642 5.93231 8.06753 5.56128 8.76631C4.86434 10.086 4.58759 11.5411 4.59499 13.0442C4.59903 13.7721 4.99498 14.3063 5.58552 14.6623C6.12961 14.9906 6.72016 15.0939 7.40026 15.0946C9.10726 15.1252 10.2783 14.1054 10.7584 12.4014C10.9886 11.5793 11.1479 10.736 11.2344 9.88218C11.3375 8.88277 10.887 8.00275 10.0406 7.57547ZM9.22645 10.7542C9.12275 11.2499 9.03925 11.7514 8.91198 12.2435C8.70997 13.0514 8.18609 13.4918 7.45885 13.5122C6.7646 13.5311 6.4434 13.1803 6.47235 12.2864C6.58279 11.528 6.71073 10.6283 7.02721 9.78027C7.29185 9.06912 7.93357 8.70371 8.63119 8.82236C9.07696 8.89515 9.30456 9.15355 9.34496 9.64124C9.37594 10.0197 9.30388 10.3873 9.22645 10.7542Z" fill="#FE0000"/>
<path d="M16.8201 7.43925C16.1467 7.26601 15.4585 7.35918 14.8451 7.32788C14.2956 7.32788 13.8135 7.32788 13.3313 7.32788C13.0815 7.32788 12.9354 7.43707 12.8856 7.71294C12.7987 8.20063 12.695 8.68468 12.5994 9.16873C12.2461 10.9584 11.8953 12.7473 11.5469 14.5355C11.4728 14.9148 11.5287 14.9846 11.893 14.9905C12.2297 14.9955 12.5664 14.9824 12.9031 14.9948C13.2115 15.005 13.3785 14.8703 13.4344 14.5311C13.5394 13.9001 13.6768 13.2748 13.7832 12.6437C13.8236 12.4028 13.899 12.2943 14.1495 12.3067C14.6081 12.3293 15.0693 12.3256 15.5279 12.3023C17.0228 12.2295 17.8847 11.5286 18.2665 10.1099C18.6342 8.73345 18.1082 7.77117 16.8201 7.43925ZM16.5299 9.76852C16.2666 11.1202 14.7044 10.9637 14.2404 10.8858C14.206 10.8791 14.1754 10.8581 14.1551 10.8274C14.1347 10.7967 14.1262 10.7587 14.1313 10.7213L14.1522 10.5954C14.1532 10.5289 14.1641 10.4631 14.1845 10.4003L14.4262 8.92343C14.431 8.89408 14.4443 8.86712 14.4641 8.84644C14.484 8.82577 14.5094 8.81246 14.5367 8.80842C14.7932 8.77057 15.5191 8.68978 16.0255 8.87612C16.137 8.8953 16.2398 8.95302 16.3184 9.04062C16.5009 9.19275 16.5972 9.42422 16.5299 9.76852Z" fill="#FE0000"/>
</g>
<defs>
<clipPath id="clip0_210_357">
<rect width="13.7853" height="7.8773" fill="white" transform="translate(4.595 7.22089)"/>
</clipPath>
</defs>
</svg>
