<svg width="23" height="23" viewBox="0 0 23 23" fill="none" xmlns="http://www.w3.org/2000/svg">
<circle cx="11.1595" cy="11.1595" r="11.1595" fill="white"/>
<g clip-path="url(#clip0_210_335)">
<path d="M13.6792 8.90601C13.4758 8.78844 13.2142 8.78844 12.9817 8.90601L11.3543 9.87598L10.25 10.4932L8.6516 11.4632C8.44817 11.5808 8.18662 11.5808 7.95413 11.4632L6.7045 10.699C6.50107 10.5814 6.35576 10.3463 6.35576 10.0817V8.61208C6.35576 8.37694 6.47201 8.14179 6.7045 7.99483L7.95413 7.26001C8.15756 7.14244 8.41911 7.14244 8.6516 7.26001L9.90123 8.02422C10.1047 8.14179 10.25 8.37694 10.25 8.64147V9.61144L11.3543 8.9648V7.96544C11.3543 7.73029 11.238 7.49515 11.0056 7.34819L8.68066 5.96672C8.47723 5.84915 8.21568 5.84915 7.98319 5.96672L5.60017 7.37758C5.36768 7.49515 5.25143 7.73029 5.25143 7.96544V10.7284C5.25143 10.9635 5.36768 11.1987 5.60017 11.3456L7.95413 12.7271C8.15756 12.8447 8.41911 12.8447 8.6516 12.7271L10.25 11.7865L11.3543 11.1399L12.9527 10.1993C13.1561 10.0817 13.4176 10.0817 13.6501 10.1993L14.8998 10.9341C15.1032 11.0517 15.2485 11.2868 15.2485 11.5514V13.021C15.2485 13.2562 15.1322 13.4913 14.8998 13.6383L13.6792 14.3731C13.4758 14.4907 13.2142 14.4907 12.9817 14.3731L11.7321 13.6383C11.5287 13.5207 11.3834 13.2856 11.3834 13.021V12.0804L10.279 12.7271V13.6971C10.279 13.9322 10.3953 14.1673 10.6278 14.3143L12.9817 15.6958C13.1851 15.8133 13.4467 15.8133 13.6792 15.6958L16.0331 14.3143C16.2366 14.1967 16.3819 13.9616 16.3819 13.6971V10.9047C16.3819 10.6696 16.2656 10.4344 16.0331 10.2875L13.6792 8.90601Z" fill="#8247E5"/>
</g>
<defs>
<clipPath id="clip0_210_335">
<rect width="11.1595" height="9.84663" fill="white" transform="translate(5.25143 5.90796)"/>
</clipPath>
</defs>
</svg>
