<svg width="23" height="23" viewBox="0 0 23 23" fill="none" xmlns="http://www.w3.org/2000/svg">
<path d="M13.6001 10.3709L14.5042 11.2751L13.6001 12.1792L10.1126 15.6667L9.20842 14.6334L12.6959 11.1459L9.20842 7.78758L10.1126 6.88341L13.6001 10.3709ZM11.1459 22.1251C5.07508 22.1251 0.166748 17.2167 0.166748 11.1459C0.166748 5.07508 5.07508 0.166748 11.1459 0.166748C17.2167 0.166748 22.1251 5.07508 22.1251 11.1459C22.1251 17.2167 17.2167 22.1251 11.1459 22.1251ZM11.1459 20.8334C16.4417 20.8334 20.8334 16.4417 20.8334 11.1459C20.8334 5.85008 16.4417 1.45841 11.1459 1.45841C5.85008 1.45841 1.45841 5.85008 1.45841 11.1459C1.45841 16.4417 5.85008 20.8334 11.1459 20.8334Z" fill="black"/>
</svg>
