<svg width="97" height="97" viewBox="0 0 97 97" fill="none" xmlns="http://www.w3.org/2000/svg">
<path d="M50.9551 77L18 64.6888V32L51 44.2365L50.9551 77Z" stroke="black" stroke-width="2" stroke-linecap="round" stroke-linejoin="round"/>
<path d="M50.7278 44L18 31.9509L44.7224 20L77 29.601L50.7278 44Z" stroke="black" stroke-width="2" stroke-linecap="round" stroke-linejoin="round"/>
<path d="M51 77L77 62.4221V30L51.044 44.5037L51 77Z" stroke="black" stroke-width="2" stroke-linecap="round" stroke-linejoin="round"/>
<path d="M89.3206 1H7.67957C3.99055 1 1 3.99055 1 7.67957V89.3206C1 93.0097 3.99055 96.0002 7.67957 96.0002H89.3206C93.0097 96.0002 96.0002 93.0097 96.0002 89.3206V7.67957C96.0002 3.99055 93.0097 1 89.3206 1Z" stroke="black" stroke-width="2" stroke-linecap="round" stroke-linejoin="round"/>
</svg>
