<svg width="55" height="55" viewBox="0 0 55 55" fill="none" xmlns="http://www.w3.org/2000/svg">
<path d="M43.1588 9.52124H13.0296C11.4467 9.52124 10.1636 10.8044 10.1636 12.3872C10.1636 13.9701 11.4467 15.2533 13.0296 15.2533H43.1588C44.7416 15.2533 46.0248 13.9701 46.0248 12.3872C46.0248 10.8044 44.7416 9.52124 43.1588 9.52124Z" fill="url(#paint0_linear_77_41)"/>
<path d="M25.2322 25.1678H13.0296C11.4467 25.1678 10.1636 26.451 10.1636 28.0338C10.1636 29.6167 11.4467 30.8999 13.0296 30.8999H25.2322C26.815 30.8999 28.0982 29.6167 28.0982 28.0338C28.0982 26.451 26.815 25.1678 25.2322 25.1678Z" fill="url(#paint1_linear_77_41)"/>
<path d="M43.1588 40.8145H13.0296C11.4467 40.8145 10.1636 42.0976 10.1636 43.6805C10.1636 45.2633 11.4467 46.5465 13.0296 46.5465H43.1588C44.7416 46.5465 46.0248 45.2633 46.0248 43.6805C46.0248 42.0976 44.7416 40.8145 43.1588 40.8145Z" fill="url(#paint2_linear_77_41)"/>
<defs>
<linearGradient id="paint0_linear_77_41" x1="10.1636" y1="12.3872" x2="46.0248" y2="12.3872" gradientUnits="userSpaceOnUse">
<stop offset="0.02" stop-color="#58B3FA"/>
<stop offset="0.51" stop-color="#0BFFFC"/>
<stop offset="1" stop-color="#0AF0A8"/>
</linearGradient>
<linearGradient id="paint1_linear_77_41" x1="10.1636" y1="28.0339" x2="28.0902" y2="28.0339" gradientUnits="userSpaceOnUse">
<stop offset="0.02" stop-color="#58B3FA"/>
<stop offset="0.51" stop-color="#0BFFFC"/>
<stop offset="1" stop-color="#0AF0A8"/>
</linearGradient>
<linearGradient id="paint2_linear_77_41" x1="10.1636" y1="43.6724" x2="46.0248" y2="43.6724" gradientUnits="userSpaceOnUse">
<stop offset="0.02" stop-color="#58B3FA"/>
<stop offset="0.51" stop-color="#0BFFFC"/>
<stop offset="1" stop-color="#0AF0A8"/>
</linearGradient>
</defs>
</svg>
