<svg width="45" height="45" viewBox="0 0 45 45" fill="none" xmlns="http://www.w3.org/2000/svg">
<path d="M22.5206 0.536133C10.0671 0.536133 0 10.6033 0 23.0567C0 33.012 6.45043 41.4385 15.399 44.4214C16.5176 44.6451 16.9277 43.9367 16.9277 43.3401C16.9277 42.8181 16.8904 41.0284 16.8904 39.1641C10.6264 40.5064 9.32142 36.4795 9.32142 36.4795C8.31471 33.8695 6.82328 33.1984 6.82328 33.1984C4.77257 31.8188 6.97242 31.8188 6.97242 31.8188C9.24685 31.968 10.44 34.1305 10.44 34.1305C12.4534 37.5608 15.6973 36.5914 17.0023 35.9948C17.1887 34.5407 17.7853 33.534 18.4191 32.9747C13.4229 32.4527 8.16557 30.5138 8.16557 21.8636C8.16557 19.4027 9.06042 17.3893 10.4773 15.8233C10.2536 15.264 9.47057 12.9523 10.701 9.85756C10.701 9.85756 12.6026 9.26099 16.8904 12.1693C18.6801 11.6846 20.619 11.4236 22.5206 11.4236C24.4221 11.4236 26.361 11.6846 28.1507 12.1693C32.4386 9.26099 34.3401 9.85756 34.3401 9.85756C35.5706 12.9523 34.7876 15.264 34.5638 15.8233C36.018 17.3893 36.8756 19.4027 36.8756 21.8636C36.8756 30.5138 31.6183 32.4154 26.5847 32.9747C27.405 33.6831 28.1134 35.0254 28.1134 37.1507C28.1134 40.1708 28.0761 42.5944 28.0761 43.3401C28.0761 43.9367 28.4863 44.6451 29.6048 44.4214C38.5534 41.4385 45.0038 33.012 45.0038 23.0567C45.0411 10.6033 34.9367 0.536133 22.5206 0.536133Z" fill="#191717"/>
</svg>
