<svg width="20" height="20" viewBox="0 0 20 20" fill="none" xmlns="http://www.w3.org/2000/svg">
<path d="M6.47082 9.98725C6.35372 9.8683 6.19473 9.79987 6.02784 9.79659C5.86095 9.79332 5.6994 9.85546 5.57773 9.96973C5.45605 10.084 5.3839 10.2413 5.37669 10.4081C5.36949 10.5749 5.42781 10.7378 5.53918 10.8622L7.58304 13.041C7.72479 13.1921 7.91967 13.2822 8.12657 13.2923C8.33347 13.3025 8.53622 13.2319 8.69206 13.0954L14.4161 8.08402C14.4793 8.02872 14.531 7.96152 14.5682 7.88626C14.6053 7.811 14.6274 7.72916 14.6329 7.64539C14.6385 7.56162 14.6275 7.47758 14.6006 7.39806C14.5737 7.31854 14.5314 7.24511 14.4761 7.18194C14.4208 7.11877 14.3536 7.06712 14.2783 7.02992C14.203 6.99272 14.1212 6.97072 14.0374 6.96515C13.9537 6.95959 13.8696 6.97057 13.7901 6.99749C13.7106 7.0244 13.6371 7.06672 13.574 7.12201L8.19827 11.8282L6.47082 9.98725Z" fill="white"/>
<path d="M9.99999 18.6292C14.7661 18.6292 18.6292 14.7661 18.6292 9.99999C18.6292 5.23392 14.7661 1.37073 9.99999 1.37073C5.23392 1.37073 1.37073 5.23392 1.37073 9.99999C1.37073 14.7661 5.23392 18.6292 9.99999 18.6292ZM9.99999 17.3508C9.03466 17.3508 8.07878 17.1607 7.18693 16.7913C6.29508 16.4219 5.48472 15.8804 4.80213 15.1978C4.11953 14.5152 3.57807 13.7049 3.20865 12.813C2.83924 11.9212 2.6491 10.9653 2.6491 9.99999C2.6491 9.03466 2.83924 8.07878 3.20865 7.18693C3.57807 6.29508 4.11953 5.48473 4.80213 4.80214C5.48472 4.11955 6.29508 3.57809 7.18693 3.20868C8.07878 2.83926 9.03466 2.64913 9.99999 2.64914C11.9495 2.64915 13.8193 3.42361 15.1978 4.80216C16.5763 6.18072 17.3508 8.05043 17.3508 9.99999C17.3508 11.9495 16.5763 13.8193 15.1978 15.1978C13.8193 16.5764 11.9495 17.3508 9.99999 17.3508Z" fill="white"/>
</svg>
