<svg width="47" height="37" viewBox="0 0 47 37" fill="none" xmlns="http://www.w3.org/2000/svg">
<path d="M41.8997 0.109237H5.1092C4.44981 0.100781 3.79544 0.224866 3.18491 0.474128C2.57439 0.723391 2.02016 1.09275 1.55511 1.56029C1.09006 2.02784 0.723668 2.58403 0.47767 3.19588C0.231673 3.80772 0.111085 4.46274 0.123064 5.12208V31.878C0.109737 32.5411 0.230523 33.2001 0.478171 33.8154C0.72582 34.4307 1.09523 34.9896 1.56422 35.4586C2.03321 35.9276 2.59213 36.297 3.20742 36.5447C3.82271 36.7923 4.48169 36.9131 5.14481 36.8998H41.8997C42.5621 36.9119 43.2201 36.7902 43.8344 36.542C44.4486 36.2938 45.0065 35.9242 45.4745 35.4554C45.9426 34.9865 46.3112 34.428 46.5583 33.8133C46.8054 33.1986 46.9259 32.5404 46.9126 31.878V5.1666C46.9307 4.50128 46.8138 3.83919 46.5689 3.22032C46.324 2.60146 45.9562 2.03868 45.4876 1.56597C45.0191 1.09327 44.4596 0.720468 43.8429 0.470089C43.2262 0.21971 42.5652 0.0969536 41.8997 0.109237ZM43.5737 31.878C43.5866 32.1012 43.5522 32.3246 43.4726 32.5336C43.3931 32.7425 43.2702 32.9323 43.1121 33.0904C42.954 33.2485 42.7643 33.3713 42.5553 33.4509C42.3464 33.5304 42.1229 33.5649 41.8997 33.5519H5.1092C4.88565 33.5663 4.66159 33.5329 4.45198 33.4538C4.24238 33.3748 4.05202 33.252 3.89362 33.0936C3.73522 32.9352 3.61241 32.7448 3.53337 32.5352C3.45434 32.3256 3.4209 32.1016 3.43528 31.878V13.4828H43.5737V31.878ZM43.5737 10.1438H3.43528V5.12208C3.4209 4.89853 3.45434 4.67448 3.53337 4.46487C3.61241 4.25526 3.73522 4.06491 3.89362 3.90651C4.05202 3.7481 4.24238 3.62529 4.45198 3.54626C4.66159 3.46722 4.88565 3.43378 5.1092 3.44817H41.8997C42.1229 3.43523 42.3464 3.46967 42.5553 3.54921C42.7643 3.62876 42.954 3.75162 43.1121 3.90971C43.2702 4.0678 43.3931 4.25756 43.4726 4.46651C43.5522 4.67546 43.5866 4.89888 43.5737 5.12208V10.1438ZM8.44813 26.8652H15.1438C15.5877 26.8652 16.0135 26.6888 16.3274 26.3749C16.6413 26.061 16.8177 25.6352 16.8177 25.1913C16.8177 24.7473 16.6413 24.3216 16.3274 24.0076C16.0135 23.6937 15.5877 23.5174 15.1438 23.5174H8.44813C8.00418 23.5174 7.57841 23.6937 7.26449 24.0076C6.95057 24.3216 6.77421 24.7473 6.77421 25.1913C6.77421 25.6352 6.95057 26.061 7.26449 26.3749C7.57841 26.6888 8.00418 26.8652 8.44813 26.8652Z" fill="url(#paint0_linear_77_62)"/>
<defs>
<linearGradient id="paint0_linear_77_62" x1="0.0874492" y1="18.5045" x2="46.9126" y2="18.5045" gradientUnits="userSpaceOnUse">
<stop offset="0.02" stop-color="#58B3FA"/>
<stop offset="0.51" stop-color="#0BFFFC"/>
<stop offset="1" stop-color="#0AF0A8"/>
</linearGradient>
</defs>
</svg>
