<svg width="79" height="79" viewBox="0 0 79 79" fill="none" xmlns="http://www.w3.org/2000/svg">
<path d="M62.3507 20.2586C60.4905 15.727 57.3249 11.8509 53.2562 9.12303C49.1876 6.39512 44.3997 4.93859 39.5012 4.93859C34.6027 4.93859 29.8148 6.39512 25.7462 9.12303C21.6776 11.8509 18.5119 15.727 16.6517 20.2586C12.5997 21.2139 8.99117 23.5145 6.41524 26.785C3.8393 30.0555 2.4481 34.1026 2.46873 38.2656C2.46873 48.4764 10.7736 56.7813 20.9844 56.7813H28.0425C28.6973 56.7813 29.3252 56.5212 29.7882 56.0582C30.2512 55.5952 30.5113 54.9673 30.5113 54.3125C30.5113 53.6577 30.2512 53.0298 29.7882 52.5668C29.3252 52.1039 28.6973 51.8438 28.0425 51.8438H20.9844C17.3844 51.8398 13.933 50.408 11.3875 47.8625C8.84196 45.3169 7.41015 41.8656 7.40623 38.2656C7.39006 35.0276 8.5379 31.8916 10.6406 29.4291C12.7432 26.9667 15.6607 25.3417 18.8612 24.8504L20.3301 24.6208L20.8115 23.2137C23.5494 15.2347 31.0593 9.875 39.5 9.875C43.6162 9.87384 47.63 11.1588 50.9802 13.5503C54.3304 15.9418 56.8497 19.3203 58.186 23.2137L58.6698 24.6208L60.1387 24.8504C63.3393 25.3417 66.2568 26.9667 68.3594 29.4291C70.4621 31.8916 71.6099 35.0276 71.5937 38.2656C71.5937 45.7509 65.5009 51.8438 58.0156 51.8438H50.5106C49.8559 51.8438 49.2279 52.1039 48.7649 52.5668C48.302 53.0298 48.0419 53.6577 48.0419 54.3125C48.0419 54.9673 48.302 55.5952 48.7649 56.0582C49.2279 56.5212 49.8559 56.7813 50.5106 56.7813H58.0156C68.2264 56.7813 76.5312 48.4764 76.5312 38.2656C76.552 34.1029 75.1611 30.0561 72.5857 26.7856C70.0102 23.5152 66.4023 21.2143 62.3507 20.2586Z" fill="#3E3E3E"/>
<path d="M50.1304 43.9783C50.3813 44.1837 50.6702 44.3376 50.9807 44.4314C51.2911 44.5251 51.6169 44.5567 51.9396 44.5245C52.2623 44.4923 52.5754 44.3969 52.8612 44.2436C53.147 44.0904 53.3998 43.8824 53.6052 43.6315C53.8105 43.3805 53.9645 43.0916 54.0582 42.7812C54.1519 42.4707 54.1836 42.1449 54.1514 41.8222C54.1192 41.4996 54.0237 41.1864 53.8705 40.9006C53.7172 40.6149 53.5092 40.3621 53.2583 40.1567L41.0651 30.1731C40.6238 29.8112 40.0707 29.6135 39.4999 29.6135C38.9292 29.6135 38.3761 29.8112 37.9348 30.1731L25.6651 40.2209C25.2723 40.544 24.9889 40.9804 24.8533 41.4705C24.7178 41.9607 24.7367 42.4807 24.9076 42.9597C25.0786 43.4387 25.3931 43.8533 25.8083 44.1469C26.2235 44.4406 26.7192 44.5989 27.2278 44.6004C27.7981 44.6013 28.3507 44.4031 28.7905 44.04L37.0312 37.2979V70.3594C37.0312 71.0141 37.2913 71.6421 37.7543 72.105C38.2173 72.568 38.8452 72.8281 39.4999 72.8281C40.1547 72.8281 40.7826 72.568 41.2456 72.105C41.7086 71.6421 41.9687 71.0141 41.9687 70.3594V37.2979L50.1304 43.9783Z" fill="#3E3E3E"/>
</svg>
