<svg width="48" height="43" viewBox="0 0 48 43" fill="none" xmlns="http://www.w3.org/2000/svg">
<path d="M11 5.88C11.2267 5.46666 11.4667 5.06666 11.72 4.68C12.098 4.10304 12.6804 3.69056 13.3501 3.52546C14.0198 3.36035 14.7271 3.45486 15.33 3.79C15.6599 3.97277 15.9483 4.2219 16.1771 4.5217C16.4059 4.8215 16.5701 5.16545 16.6594 5.53187C16.7486 5.89829 16.761 6.27923 16.6957 6.65067C16.6304 7.02211 16.4889 7.37599 16.28 7.69C16.11 7.96 15.94 8.24 15.78 8.52999C15.62 8.81999 15.47 9.11 15.34 9.4C15.184 9.74317 14.959 10.0505 14.6788 10.3027C14.3987 10.5549 14.0695 10.7466 13.7119 10.8658C13.3543 10.985 12.976 11.0292 12.6005 10.9955C12.2251 10.9618 11.8606 10.851 11.53 10.67C10.9267 10.3366 10.4713 9.78812 10.2544 9.13388C10.0376 8.47963 10.0753 7.76769 10.36 7.14C10.58 6.72 10.79 6.3 11 5.88ZM17.77 32.79C14.0268 30.7124 11.0363 27.5047 9.22591 23.6252C7.41551 19.7458 6.87792 15.3933 7.68998 11.19C7.82131 10.4927 7.72854 9.77176 7.42495 9.13045C7.12136 8.48914 6.62254 7.96039 5.99999 7.62C5.5249 7.36586 4.99675 7.22687 4.45811 7.21422C3.91947 7.20158 3.38539 7.31563 2.8989 7.5472C2.41241 7.77877 1.98711 8.12138 1.65728 8.54742C1.32745 8.97345 1.1023 9.47101 0.999985 10C-0.0564508 15.5981 0.67951 21.3868 3.10315 26.5424C5.52679 31.6981 9.51466 35.958 14.4993 38.7162C19.484 41.4744 25.2116 42.5903 30.8672 41.9052C36.5227 41.22 41.8181 38.7687 46 34.9C46.4014 34.5319 46.7096 34.0738 46.8994 33.5634C47.0891 33.0529 47.155 32.5047 47.0915 31.9638C47.0281 31.4229 46.8371 30.9048 46.5343 30.4522C46.2316 29.9995 45.8257 29.6252 45.35 29.36C44.7307 29.0183 44.0193 28.8807 43.3173 28.9669C42.6152 29.0531 41.9582 29.3586 41.44 29.84C38.3108 32.7596 34.3397 34.6167 30.0929 35.1464C25.8461 35.6761 21.5405 34.8514 17.79 32.79H17.77ZM20.44 28C22.3427 29.0563 24.4555 29.6786 26.627 29.8221C28.7985 29.9656 30.9749 29.6268 33 28.83C33.5955 28.5892 34.1103 28.1841 34.4844 27.662C34.8586 27.1398 35.0767 26.5222 35.1134 25.8809C35.1501 25.2396 35.0038 24.601 34.6916 24.0397C34.3794 23.4783 33.9141 23.0172 33.35 22.71C32.9098 22.4689 32.4226 22.3262 31.9219 22.2917C31.4213 22.2572 30.9191 22.3316 30.45 22.51C29.368 22.9238 28.2086 23.0961 27.053 23.0149C25.8974 22.9337 24.7735 22.6009 23.76 22.0399C22.7465 21.4788 21.8678 20.703 21.1855 19.7668C20.5032 18.8306 20.0337 17.7566 19.81 16.62C19.7117 16.1293 19.5079 15.6658 19.2126 15.2617C18.9173 14.8577 18.5377 14.5227 18.1 14.28C17.5394 13.969 16.9023 13.8229 16.2622 13.8584C15.6221 13.894 15.0051 14.1097 14.4824 14.4809C13.9596 14.852 13.5525 15.3634 13.3079 15.956C13.0633 16.5485 12.9912 17.1982 13.1 17.83C13.5009 19.9604 14.3665 21.9762 15.6352 23.734C16.9038 25.4918 18.5444 26.9484 20.44 28ZM31.44 8.07C32.4596 8.62718 33.3456 9.39977 34.0364 10.334C34.7271 11.2683 35.2061 12.3419 35.44 13.48C35.5362 13.9728 35.7392 14.4385 36.0346 14.8445C36.33 15.2504 36.7107 15.5868 37.15 15.83C37.7106 16.141 38.3477 16.2871 38.9878 16.2516C39.6279 16.216 40.2449 16.0002 40.7676 15.6291C41.2903 15.258 41.6975 14.7466 41.9421 14.154C42.1867 13.5614 42.2587 12.9118 42.15 12.28C41.7438 10.1478 40.873 8.13121 39.5995 6.37356C38.3259 4.61591 36.6809 3.16034 34.7812 2.11028C32.8816 1.06023 30.774 0.441462 28.6082 0.297962C26.4424 0.154463 24.2716 0.489749 22.25 1.28C21.6549 1.52265 21.1408 1.92899 20.7673 2.4519C20.3937 2.97481 20.176 3.59289 20.1394 4.23448C20.1027 4.87607 20.2487 5.51491 20.5603 6.07694C20.8719 6.63897 21.3364 7.10118 21.9 7.41C22.3382 7.6515 22.8238 7.7945 23.3229 7.82904C23.822 7.86359 24.3227 7.78883 24.79 7.61C25.8682 7.19638 27.0237 7.02325 28.1758 7.1027C29.3279 7.18215 30.4488 7.51228 31.46 8.07H31.44Z" fill="black"/>
</svg>
