<svg width="66" height="66" viewBox="0 0 66 66" fill="none" xmlns="http://www.w3.org/2000/svg">
<path fill-rule="evenodd" clip-rule="evenodd" d="M33 0.689323C50.8466 0.689323 65.3107 15.1534 65.3107 33C65.3107 50.8466 50.8466 65.3107 33 65.3107C15.1534 65.3107 0.689316 50.8466 0.689316 33C0.689316 15.1534 15.1534 0.689323 33 0.689323Z" fill="url(#paint0_radial_34_793)"/>
<path d="M21.2243 25.6417C27.7243 19.2932 38.2757 19.2932 44.7757 25.6417L45.5583 26.4116C45.8864 26.7272 45.8864 27.2447 45.5583 27.5602L42.8825 30.1728C42.7184 30.3369 42.4534 30.3369 42.2893 30.1728L41.2165 29.1252C36.6728 24.6951 29.3272 24.6951 24.7835 29.1252L23.6349 30.2485C23.4709 30.4126 23.2058 30.4126 23.0417 30.2485L20.366 27.6359C20.0379 27.3204 20.0379 26.8029 20.366 26.4874L21.2243 25.6417ZM50.3165 31.0437L52.7019 33.366C53.0301 33.6816 53.0301 34.199 52.7019 34.5146L41.9612 45.0029C41.633 45.3184 41.1029 45.3184 40.7874 45.0029L33.1641 37.5563C33.0883 37.4806 32.9495 37.4806 32.8738 37.5563L25.2505 45.0029C24.9223 45.3184 24.3922 45.3184 24.0767 45.0029L13.2981 34.5146C12.9699 34.199 12.9699 33.6816 13.2981 33.366L15.6835 31.0437C16.0116 30.7282 16.5417 30.7282 16.8573 31.0437L24.4806 38.4903C24.5563 38.566 24.6951 38.566 24.7709 38.4903L32.3942 31.0437C32.7223 30.7282 33.2524 30.7282 33.568 31.0437L41.1913 38.4903C41.267 38.566 41.4058 38.566 41.4816 38.4903L49.1049 31.0437C49.4582 30.7282 49.9883 30.7282 50.3165 31.0437Z" fill="white"/>
<defs>
<radialGradient id="paint0_radial_34_793" cx="0" cy="0" r="1" gradientUnits="userSpaceOnUse" gradientTransform="translate(0.689516 33.001) scale(64.6214)">
<stop stop-color="#5D9DF6"/>
<stop offset="1" stop-color="#006FFF"/>
</radialGradient>
</defs>
</svg>
