<svg width="84" height="84" viewBox="0 0 84 84" fill="none" xmlns="http://www.w3.org/2000/svg">
<path d="M77.2345 1H6.76551C3.58131 1 1 3.58131 1 6.76551V77.2345C1 80.4187 3.58131 83 6.76551 83H77.2345C80.4187 83 83 80.4187 83 77.2345V6.76551C83 3.58131 80.4187 1 77.2345 1Z" stroke="black" stroke-width="2" stroke-linecap="round" stroke-linejoin="round"/>
<path d="M42.9681 49.2714C43.0867 49.2784 43.2054 49.2602 43.3164 49.218C43.4274 49.1758 43.5282 49.1106 43.6122 49.0266C43.6961 48.9427 43.7614 48.8419 43.8036 48.7308C43.8458 48.6198 43.864 48.5012 43.857 48.3826V43.1408H49.0988C49.3345 43.1408 49.5606 43.0471 49.7273 42.8804C49.894 42.7138 49.9876 42.4877 49.9876 42.2519C49.9876 42.0162 49.894 41.7901 49.7273 41.6234C49.5606 41.4567 49.3345 41.3631 49.0988 41.3631H43.857V36.1213C43.857 35.8855 43.7633 35.6595 43.5966 35.4928C43.4299 35.3261 43.2039 35.2324 42.9681 35.2324C42.7324 35.2324 42.5063 35.3261 42.3396 35.4928C42.1729 35.6595 42.0793 35.8855 42.0793 36.1213V41.3583H36.8375C36.6017 41.3583 36.3756 41.4519 36.2089 41.6186C36.0423 41.7853 35.9486 42.0114 35.9486 42.2471C35.9486 42.4829 36.0423 42.709 36.2089 42.8756C36.3756 43.0423 36.6017 43.136 36.8375 43.136H42.0793V48.3826C42.0723 48.5012 42.0905 48.6198 42.1327 48.7308C42.1749 48.8419 42.2401 48.9427 42.3241 49.0266C42.4081 49.1106 42.5089 49.1758 42.6199 49.218C42.7309 49.2602 42.8496 49.2784 42.9681 49.2714Z" fill="black"/>
<path d="M43.0546 59.8509C43.2198 59.8461 43.3781 59.7831 43.5014 59.6731L49.4543 55.8294C54.331 52.2932 57.2137 49.1847 57.2137 43.6738V30.6101C57.2054 30.4055 57.1319 30.2089 57.004 30.049C56.8761 29.8892 56.7004 29.7743 56.5027 29.7212C54.5472 29.4522 50.1894 28.3856 43.4342 24.7437C43.3192 24.6571 43.1793 24.6104 43.0354 24.6104C42.8915 24.6104 42.7515 24.6571 42.6366 24.7437C35.7708 28.3856 31.5044 29.4522 29.5489 29.7212C29.3424 29.7573 29.1562 29.8675 29.0253 30.0312C28.8943 30.1949 28.8277 30.4007 28.8378 30.6101V43.6738C28.8378 49.2711 31.7686 52.3845 36.7462 55.8486L37.7071 56.4732C37.9072 56.5819 38.141 56.6105 38.3614 56.5533C38.5818 56.4961 38.7723 56.3574 38.8943 56.1652C39.0163 55.973 39.0608 55.7417 39.0188 55.5179C38.9768 55.2941 38.8514 55.0946 38.668 54.9598L37.635 54.3304C33.013 51.1305 30.5242 48.464 30.5242 43.6642V31.4077C32.8352 30.9656 36.9239 29.7212 42.9681 26.6031C49.0123 29.8029 53.1875 30.9608 55.412 31.4077V43.6738C55.412 48.4784 53.0097 51.0488 48.3877 54.34L42.5213 58.1837C42.4195 58.2456 42.3315 58.3277 42.2627 58.4249C42.1938 58.5221 42.1455 58.6323 42.1208 58.7489C42.096 58.8654 42.0953 58.9857 42.1188 59.1025C42.1422 59.2193 42.1893 59.3301 42.257 59.428C42.343 59.5606 42.4613 59.6691 42.6009 59.7431C42.7405 59.8171 42.8967 59.8542 43.0546 59.8509Z" fill="black"/>
<path d="M43.0546 18.0137H43.0498C29.8274 18.0137 19.1085 28.7326 19.1085 41.955V41.9598C19.1085 55.1822 29.8274 65.9011 43.0498 65.9011H43.0546C56.277 65.9011 66.9959 55.1822 66.9959 41.9598V41.955C66.9959 28.7326 56.277 18.0137 43.0546 18.0137Z" stroke="black" stroke-width="2" stroke-linecap="round" stroke-linejoin="round"/>
</svg>
