<svg width="51" height="39" viewBox="0 0 51 39" fill="none" xmlns="http://www.w3.org/2000/svg">
<path d="M43.0769 3.50158C43.0628 3.47437 43.0396 3.45304 43.0112 3.44143C39.735 1.93826 36.2777 0.866388 32.7257 0.252629C32.6934 0.24663 32.6601 0.250958 32.6304 0.264998C32.6008 0.279038 32.5763 0.302074 32.5604 0.330832C32.0897 1.1853 31.6623 2.06298 31.28 2.96052C27.4512 2.37931 23.5566 2.37931 19.7277 2.96052C19.3429 2.0607 18.9087 1.1828 18.4271 0.330832C18.4106 0.302699 18.386 0.280193 18.3565 0.266244C18.327 0.252296 18.294 0.247551 18.2617 0.252629C14.7094 0.8651 11.2518 1.93705 7.97604 3.44151C7.948 3.4534 7.92434 3.4737 7.90832 3.49961C1.35739 13.2826 -0.437153 22.825 0.443191 32.2492C0.445668 32.2723 0.452764 32.2947 0.464058 32.315C0.475352 32.3353 0.490613 32.3531 0.508933 32.3674C4.32348 35.1918 8.5901 37.3476 13.1267 38.743C13.1587 38.7526 13.1928 38.7522 13.2245 38.7418C13.2562 38.7314 13.2839 38.7115 13.304 38.6849C14.2784 37.3591 15.1417 35.9553 15.8853 34.4875C15.8955 34.4674 15.9014 34.4453 15.9024 34.4228C15.9035 34.4002 15.8998 34.3777 15.8915 34.3567C15.8832 34.3357 15.8706 34.3166 15.8544 34.3009C15.8383 34.2851 15.8189 34.2729 15.7977 34.2651C14.4363 33.7442 13.1182 33.1163 11.856 32.3872C11.833 32.3737 11.8138 32.3548 11.7999 32.3321C11.786 32.3094 11.7779 32.2836 11.7763 32.2571C11.7748 32.2305 11.7798 32.204 11.7909 32.1798C11.802 32.1557 11.8189 32.1346 11.8401 32.1185C12.1057 31.9201 12.3667 31.7156 12.6229 31.5052C12.6453 31.4867 12.6725 31.4748 12.7014 31.4709C12.7302 31.467 12.7596 31.4713 12.7861 31.4832C21.0558 35.2573 30.0089 35.2573 38.1807 31.4832C38.2073 31.4705 38.237 31.4657 38.2662 31.4692C38.2955 31.4728 38.3232 31.4846 38.346 31.5032C38.6025 31.7147 38.8642 31.9199 39.1308 32.1185C39.1521 32.1344 39.1691 32.1554 39.1804 32.1794C39.1917 32.2035 39.1969 32.23 39.1955 32.2565C39.1941 32.2831 39.1862 32.3089 39.1725 32.3317C39.1588 32.3545 39.1397 32.3735 39.1169 32.3872C37.8575 33.1224 36.5382 33.75 35.1732 34.2632C35.152 34.2712 35.1327 34.2837 35.1167 34.2997C35.1006 34.3157 35.0881 34.335 35.08 34.3561C35.0719 34.3773 35.0684 34.4 35.0696 34.4226C35.0709 34.4453 35.0769 34.4674 35.0873 34.4875C35.8433 35.9471 36.7054 37.3492 37.6666 38.6826C37.6861 38.7099 37.7137 38.7305 37.7455 38.7413C37.7773 38.7521 37.8118 38.7526 37.8439 38.7427C42.3886 37.3521 46.6627 35.196 50.482 32.3674C50.5006 32.3538 50.5161 32.3364 50.5274 32.3164C50.5388 32.2964 50.5457 32.2741 50.5478 32.2512C51.6017 21.3558 48.7833 11.8916 43.0769 3.50158ZM17.1203 26.5108C14.6305 26.5108 12.579 24.226 12.579 21.42C12.579 18.614 14.5907 16.329 17.1203 16.329C19.6696 16.329 21.7013 18.6338 21.6615 21.4198C21.6615 24.226 19.6497 26.5108 17.1203 26.5108ZM33.9108 26.5108C31.4211 26.5108 29.3696 24.226 29.3696 21.42C29.3696 18.614 31.3813 16.329 33.9108 16.329C36.4603 16.329 38.4918 18.6338 38.4521 21.4198C38.4521 24.226 36.4603 26.5108 33.9108 26.5108Z" fill="black"/>
</svg>
