<svg width="107" height="80" viewBox="0 0 107 80" fill="none" xmlns="http://www.w3.org/2000/svg">
<path d="M53.4733 9.21333C70.4996 9.21333 84.3026 22.9733 84.3026 39.9467C84.3026 56.92 70.4996 70.68 53.4733 70.68C36.4469 70.68 22.6439 56.92 22.6439 39.9467C22.6439 22.9733 36.4469 9.21333 53.4733 9.21333Z" fill="#0052FF"/>
<path d="M53.4866 50.7467C47.4946 50.7467 42.6529 45.9067 42.6529 39.9467C42.6529 33.9867 47.508 29.1467 53.4866 29.1467C58.85 29.1467 63.3039 33.04 64.1599 38.1467H75.0739C74.151 27.0533 64.842 18.3333 53.4733 18.3333C41.5026 18.3333 31.7924 28.0133 31.7924 39.9467C31.7924 51.88 41.5026 61.56 53.4733 61.56C64.842 61.56 74.151 52.84 75.0739 41.7467H64.1465C63.2905 46.8533 58.85 50.7467 53.4866 50.7467Z" fill="white"/>
</svg>
