<svg width="23" height="23" viewBox="0 0 23 23" fill="none" xmlns="http://www.w3.org/2000/svg">
<circle cx="11.1595" cy="11.1595" r="11.1595" fill="white"/>
<g clip-path="url(#clip0_210_373)">
<path d="M3.28214 11.1236C3.34524 11.1078 3.37614 11.0504 3.41712 11.0084C4.82336 9.56565 6.22861 8.12221 7.6329 6.6781C7.66705 6.64452 7.70316 6.61094 7.73959 6.57434C7.7913 6.61766 7.76756 6.67138 7.76756 6.71671C7.76951 7.40441 7.76951 8.09199 7.76756 8.77946C7.76756 9.00075 7.76756 9.00108 7.97768 9.00142L11.9762 9.00578H12.198C11.9212 9.22102 11.674 9.41376 11.4255 9.60449C10.2398 10.5131 9.05323 11.4209 7.86579 12.3277C7.78285 12.3909 7.76821 12.462 7.76821 12.5551C7.77016 13.5499 7.77016 14.5449 7.76821 15.5402V15.7548C7.70543 15.6954 7.6625 15.6571 7.62281 15.6161C6.21615 14.1662 4.80937 12.716 3.40248 11.2656C3.36475 11.2267 3.32247 11.1928 3.28214 11.1565V11.1236Z" fill="#8D89FE"/>
<path d="M14.6359 6.56439C15.5033 7.46341 16.3706 8.3622 17.238 9.26077C17.8157 9.85847 18.3947 10.4547 18.9749 11.0495C19.0449 11.121 19.0631 11.1617 18.9818 11.2449C17.5458 12.7195 16.1117 14.1962 14.6795 15.675C14.6613 15.6938 14.6411 15.7106 14.6144 15.7338C14.5819 15.6804 14.5946 15.63 14.5946 15.5833C14.5946 14.8903 14.5891 14.1972 14.5975 13.5041C14.5995 13.348 14.5695 13.299 14.4069 13.3C13.0577 13.306 11.7072 13.3 10.3599 13.3H10.1843C10.2168 13.2254 10.2724 13.2019 10.3167 13.168C11.7021 12.1134 13.0881 11.0598 14.4746 10.0072C14.5148 9.98129 14.5474 9.94449 14.5688 9.90082C14.5903 9.85714 14.5997 9.80824 14.5962 9.75942C14.592 8.7591 14.5939 7.75845 14.5939 6.75814V6.57984L14.6359 6.56439Z" fill="#4F509E"/>
</g>
<defs>
<clipPath id="clip0_210_373">
<rect width="15.7546" height="9.19018" fill="white" transform="translate(3.28214 6.56439)"/>
</clipPath>
</defs>
</svg>
