<svg width="146" height="34" viewBox="0 0 146 34" fill="none" xmlns="http://www.w3.org/2000/svg">
<g clip-path="url(#clip0_53_1369)">
<path d="M42.1472 15.6967C42.1553 14.0042 42.4664 12.3264 43.0662 10.7414C43.6702 9.126 44.5787 7.63884 45.7433 6.35889C46.9496 5.04255 48.4081 3.97643 50.0341 3.22241C51.8486 2.39939 53.8269 1.99069 55.8225 2.02654C58.1393 1.9688 60.4274 2.54359 62.4359 3.68787C64.2086 4.69773 65.6523 6.18862 66.5963 7.98442L62.4431 10.8345C62.1186 10.1145 61.6706 9.45547 61.119 8.88669C60.6317 8.37985 60.0648 7.95426 59.4403 7.62637C58.8479 7.32219 58.2179 7.0959 57.5663 6.95325C56.9394 6.81274 56.2989 6.74071 55.6561 6.73842C54.4193 6.70495 53.1943 6.98341 52.0962 7.5476C51.1211 8.06696 50.268 8.78441 49.5927 9.65291C48.9213 10.5358 48.4141 11.53 48.0949 12.5889C47.762 13.6461 47.5913 14.7469 47.5884 15.8543C47.5858 17.0427 47.7813 18.2234 48.1673 19.3488C48.5347 20.427 49.0988 21.4294 49.8315 22.3062C50.5527 23.1525 51.4385 23.8465 52.4363 24.3471C53.4485 24.867 54.5736 25.1349 55.714 25.1276C56.3723 25.1242 57.0279 25.0449 57.6676 24.8913C58.3424 24.7436 58.9927 24.5025 59.5995 24.1752C60.228 23.8288 60.801 23.392 61.2999 22.8791C61.8345 22.3265 62.257 21.6774 62.5444 20.9671L66.9581 23.4806C66.5159 24.5037 65.8714 25.4289 65.0624 26.2018C64.2379 26.9911 63.305 27.6613 62.2912 28.1925C61.2497 28.7368 60.1438 29.1505 58.999 29.4242C57.8751 29.7043 56.721 29.8486 55.5621 29.8538C53.6793 29.8739 51.819 29.4492 50.1354 28.615C48.5313 27.8152 47.095 26.7218 45.9025 25.3926C44.7165 24.0602 43.7782 22.5304 43.1313 20.8741C42.4775 19.2248 42.1437 17.4684 42.1472 15.6967Z" fill="white"/>
<path d="M79.3456 29.9899C77.8211 30.0112 76.3077 29.7287 74.8957 29.1592C73.6329 28.6542 72.4878 27.8987 71.5309 26.9394C70.574 25.9801 69.8255 24.8371 69.3316 23.5809C68.8366 22.3114 68.591 20.9601 68.608 19.5994C68.5944 18.2088 68.8397 16.8276 69.3316 15.5249C69.8186 14.2554 70.5638 13.0983 71.5209 12.1252C72.4779 11.1522 73.6266 10.3838 74.8957 9.86776C76.3243 9.28373 77.8581 8.99379 79.4035 9.01561C80.9352 8.9907 82.4554 9.28088 83.8679 9.86776C85.1251 10.4066 86.2596 11.1908 87.2035 12.1736C88.1287 13.1275 88.8476 14.258 89.3163 15.4962C89.7958 16.7551 90.0409 18.0894 90.0399 19.4347C90.0399 19.7713 90.0399 20.0935 90.0399 20.4015C90.0306 20.6618 89.9967 20.9207 89.9386 21.1748H74.1143C74.1754 21.9203 74.3741 22.6485 74.7004 23.3231C74.996 23.923 75.4064 24.4604 75.9087 24.9057C76.3984 25.343 76.9682 25.6833 77.5874 25.9082C78.2097 26.1396 78.869 26.2584 79.5338 26.2591C80.5715 26.2435 81.5879 25.9649 82.4859 25.4499C83.3308 25.0282 83.9992 24.3261 84.3744 23.4663L88.8677 24.698C88.0658 26.29 86.8074 27.6126 85.2499 28.5004C83.4594 29.5291 81.4152 30.0448 79.3456 29.9899ZM84.6493 17.8164C84.581 16.4272 83.9716 15.1183 82.949 14.1643C81.9646 13.2624 80.6726 12.7614 79.3312 12.7614C77.9897 12.7614 76.6977 13.2624 75.7134 14.1643C75.2324 14.618 74.8421 15.1573 74.5629 15.754C74.2531 16.3959 74.0737 17.0917 74.0347 17.802L84.6493 17.8164Z" fill="white"/>
<path d="M105.177 13.8492C103.709 13.8455 102.259 14.1532 100.922 14.7515C99.7388 15.274 98.7839 16.1987 98.2304 17.3581V29.6032H92.999V9.36649H97.8035V13.663C98.1654 12.9951 98.6103 12.3744 99.1276 11.8155C99.6076 11.2832 100.144 10.8031 100.727 10.3833C101.262 9.99505 101.845 9.6773 102.463 9.4381C103.002 9.22621 103.576 9.11454 104.156 9.10869H104.8C104.939 9.10805 105.077 9.12245 105.213 9.15166L105.177 13.8492Z" fill="white"/>
<path d="M116.341 29.9899C114.817 30.0112 113.303 29.7287 111.891 29.1592C110.637 28.6472 109.5 27.8889 108.55 26.9302C107.6 25.9714 106.856 24.8321 106.363 23.5809C105.868 22.3114 105.623 20.96 105.64 19.5994C105.626 18.2088 105.871 16.8276 106.363 15.5248C106.85 14.2553 107.596 13.0983 108.553 12.1252C109.51 11.1521 110.658 10.3838 111.927 9.86773C113.356 9.28371 114.89 8.99376 116.435 9.01558C117.945 9.00136 119.442 9.29129 120.835 9.86773C122.101 10.4042 123.246 11.1885 124.199 12.1735C125.124 13.1274 125.843 14.258 126.312 15.4962C126.791 16.755 127.036 18.0894 127.035 19.4347C127.035 19.7713 127.035 20.0935 127.035 20.4014C127.026 20.6618 126.992 20.9207 126.934 21.1748H111.11C111.171 21.9203 111.37 22.6484 111.696 23.3231C111.991 23.9012 112.391 24.4206 112.875 24.8555C113.366 25.2913 113.936 25.6314 114.554 25.858C115.179 26.09 115.84 26.2088 116.508 26.2089C117.538 26.2078 118.552 25.9465 119.453 25.4499C120.299 25.0306 120.968 24.3278 121.341 23.4663L125.899 24.698C125.098 26.29 123.839 27.6126 122.282 28.5004C120.481 29.5355 118.423 30.0515 116.341 29.9899ZM121.645 17.8163C121.576 16.4289 120.969 15.1212 119.952 14.1643C119.198 13.5028 118.274 13.0594 117.283 12.8826C116.291 12.7058 115.27 12.8024 114.33 13.1617C113.729 13.3989 113.179 13.7464 112.709 14.1858C112.23 14.6331 111.84 15.1649 111.558 15.754C111.252 16.3971 111.073 17.0922 111.03 17.802L121.645 17.8163Z" fill="white"/>
<path d="M137.722 29.9899C136.001 29.993 134.291 29.7197 132.658 29.1807C131.111 28.689 129.678 27.9006 128.439 26.8606L130.393 23.6167C131.511 24.4258 132.726 25.0945 134.011 25.6074C135.135 26.0461 136.333 26.2744 137.542 26.2805C138.401 26.3259 139.255 26.1245 140.002 25.7005C140.287 25.5276 140.521 25.2824 140.678 24.9904C140.836 24.6984 140.912 24.37 140.899 24.0392C140.906 23.7004 140.809 23.3676 140.62 23.0849C140.431 22.8022 140.16 22.5831 139.843 22.4566C138.731 21.9852 137.584 21.5997 136.413 21.3037C135.081 20.9385 133.953 20.5876 133.012 20.2582C132.208 19.9879 131.448 19.6045 130.755 19.1196C130.222 18.739 129.793 18.2349 129.503 17.6516C129.227 17.0243 129.094 16.3448 129.112 15.6609C129.097 14.7009 129.305 13.7502 129.72 12.8825C130.117 12.0638 130.696 11.3443 131.413 10.7772C132.176 10.1802 133.045 9.72863 133.974 9.44524C135.002 9.12779 136.074 8.97075 137.151 8.97978C138.624 8.96684 140.09 9.1893 141.492 9.63859C142.857 10.0988 144.113 10.8298 145.182 11.7869L143.077 14.9162C142.155 14.2111 141.137 13.6396 140.052 13.219C139.128 12.8692 138.148 12.6849 137.158 12.6748C136.379 12.6507 135.608 12.839 134.93 13.219C134.634 13.4007 134.394 13.6588 134.236 13.9655C134.078 14.2722 134.008 14.6157 134.032 14.9591C134.021 15.2693 134.096 15.5766 134.249 15.8471C134.422 16.1042 134.655 16.3157 134.93 16.4629C135.323 16.6739 135.734 16.8489 136.16 16.9857C136.666 17.1504 137.303 17.3222 138.055 17.5084C139.459 17.8665 140.665 18.2269 141.673 18.5897C142.547 18.8843 143.376 19.2989 144.133 19.8214C144.724 20.2376 145.205 20.7876 145.537 21.4254C145.852 22.1105 146.005 22.8573 145.986 23.6095C146.021 24.5109 145.837 25.4074 145.449 26.2237C145.061 27.04 144.481 27.752 143.757 28.2999C142.288 29.417 140.277 29.9899 137.722 29.9899Z" fill="white"/>
<path d="M8.61029 4.56867C8.79842 4.23211 8.99378 3.90987 9.20361 3.58762C9.51521 3.12148 9.99301 2.78881 10.5416 2.65607C11.0902 2.52332 11.6692 2.60027 12.163 2.87153C12.4334 3.02085 12.6698 3.2238 12.8574 3.4677C13.045 3.71159 13.1796 3.99118 13.253 4.28896C13.3263 4.58673 13.3368 4.89629 13.2837 5.19825C13.2306 5.50021 13.1151 5.78807 12.9444 6.04382C12.7997 6.2658 12.6622 6.48779 12.532 6.75991C12.4017 7.03202 12.2787 7.22537 12.1702 7.476C12.0412 7.75369 11.8559 8.00221 11.6259 8.20621C11.3959 8.4102 11.1261 8.56533 10.8331 8.66198C10.5401 8.75864 10.2302 8.79477 9.92255 8.76814C9.61489 8.74151 9.31602 8.65269 9.04443 8.50717C8.54995 8.23656 8.17689 7.79122 7.99982 7.26018C7.82275 6.72915 7.85472 6.15153 8.08933 5.64281C8.24851 5.24179 8.42216 4.90523 8.61029 4.56867ZM14.1672 26.4166C11.0924 24.732 8.63534 22.1271 7.14835 18.9754C5.66137 15.8238 5.22077 12.2871 5.8897 8.87238C5.99355 8.31334 5.91742 7.73615 5.67206 7.22223C5.42669 6.70831 5.02449 6.2836 4.52217 6.00801C4.13251 5.79421 3.69723 5.67476 3.25195 5.65944C2.80667 5.64412 2.36406 5.73337 1.96033 5.91987C1.5566 6.10638 1.20324 6.38485 0.92915 6.73249C0.655064 7.08013 0.468049 7.48706 0.38341 7.91998C-0.487529 12.4686 0.114258 17.1733 2.10303 21.3637C4.09181 25.5541 7.36611 29.0164 11.4594 31.2574C15.5528 33.4984 20.2563 34.4037 24.9 33.8444C29.5436 33.2851 33.8904 31.2896 37.3212 28.1424C37.6517 27.8428 37.9055 27.4697 38.0618 27.054C38.2181 26.6382 38.2723 26.1916 38.22 25.7511C38.1677 25.3105 38.0104 24.8886 37.7611 24.52C37.5117 24.1514 37.1774 23.8467 36.7857 23.631C36.2768 23.3542 35.6929 23.2426 35.1165 23.312C34.54 23.3814 34.0002 23.6283 33.5731 24.0177C31.0083 26.3934 27.7496 27.905 24.2638 28.3359C20.7779 28.7668 17.2437 28.095 14.1672 26.4166ZM16.3379 22.5354C17.897 23.3869 19.6262 23.8887 21.4031 24.005C23.1799 24.1213 24.9609 23.8494 26.6197 23.2085C27.1091 23.0128 27.5322 22.6835 27.8397 22.259C28.1473 21.8345 28.3267 21.3323 28.357 20.8108C28.3874 20.2893 28.2674 19.77 28.011 19.3134C27.7547 18.8568 27.3726 18.4817 26.9091 18.2317C26.5485 18.0374 26.1496 17.9227 25.7399 17.8955C25.3303 17.8683 24.9195 17.9293 24.5359 18.0741C23.6476 18.414 22.6948 18.5568 21.7446 18.4926C20.7945 18.4285 19.8701 18.1588 19.0367 17.7027C18.2033 17.2466 17.4811 16.6152 16.921 15.8528C16.361 15.0905 15.9767 14.2159 15.7952 13.2907C15.7161 12.8919 15.5502 12.5149 15.309 12.186C15.0679 11.8571 14.7573 11.584 14.3988 11.3859C13.9405 11.1333 13.4194 11.0139 12.8956 11.0415C12.3717 11.0691 11.8664 11.2425 11.4377 11.5418C11.0091 11.8411 10.6745 12.2541 10.4726 12.7332C10.2706 13.2123 10.2095 13.7382 10.2962 14.2502C10.6247 15.9863 11.3367 17.6291 12.3811 19.0613C13.4255 20.4936 14.7766 21.6798 16.3379 22.5354ZM25.3824 6.34457C26.2154 6.79828 26.938 7.42701 27.4992 8.1866C28.0605 8.94619 28.4469 9.81821 28.6312 10.7414C28.7104 11.1402 28.8763 11.5171 29.1174 11.846C29.3586 12.175 29.6692 12.448 30.0277 12.6462C30.4865 12.8978 31.0077 13.0164 31.5314 12.9885C32.0552 12.9606 32.5605 12.7872 32.9894 12.4883C33.4182 12.1894 33.7534 11.777 33.9564 11.2984C34.1595 10.8197 34.2222 10.2941 34.1375 9.78181C33.8076 8.04774 33.0955 6.40698 32.0517 4.9764C31.008 3.54581 29.6583 2.3606 28.0989 1.50518C26.5395 0.649752 24.8087 0.145159 23.0297 0.0273358C21.2508 -0.090487 19.4674 0.181359 17.8067 0.823513C17.3077 1.01455 16.8747 1.3438 16.5597 1.7719C16.2447 2.2 16.061 2.70884 16.0304 3.23756C15.9999 3.76628 16.1239 4.29252 16.3876 4.75335C16.6513 5.21418 17.0435 5.59009 17.5173 5.83615C17.88 6.02834 18.2799 6.14181 18.6904 6.16897C19.1009 6.19614 19.5125 6.13638 19.8978 5.99369C20.7826 5.65297 21.7319 5.50783 22.6794 5.56844C23.6268 5.62906 24.5493 5.89395 25.3824 6.34457Z" fill="url(#paint0_linear_53_1369)"/>
</g>
<defs>
<linearGradient id="paint0_linear_53_1369" x1="38.2329" y1="17.0011" x2="-1.03848e-05" y2="17.0004" gradientUnits="userSpaceOnUse">
<stop offset="0.02" stop-color="#58B3FA"/>
<stop offset="0.51" stop-color="#0BFFFC"/>
<stop offset="1" stop-color="#0AF0A8"/>
</linearGradient>
<clipPath id="clip0_53_1369">
<rect width="146" height="34" fill="white"/>
</clipPath>
</defs>
</svg>
