<svg width="146" height="34" viewBox="0 0 146 34" fill="none" xmlns="http://www.w3.org/2000/svg">
<g clip-path="url(#clip0_55_1461)">
<path d="M42.1472 15.6976C42.1553 14.005 42.4664 12.3273 43.0662 10.7422C43.6702 9.12686 44.5787 7.63969 45.7433 6.35975C46.9496 5.0434 48.4081 3.97728 50.0341 3.22327C51.8486 2.40025 53.8269 1.99155 55.8225 2.0274C58.1393 1.96965 60.4274 2.54444 62.4359 3.68873C64.2086 4.69859 65.6523 6.18947 66.5963 7.98527L62.4431 10.8353C62.1186 10.1153 61.6706 9.45633 61.119 8.88755C60.6317 8.3807 60.0648 7.95511 59.4403 7.62723C58.8479 7.32304 58.2179 7.09675 57.5663 6.9541C56.9394 6.8136 56.2989 6.74156 55.6561 6.73928C54.4193 6.70581 53.1943 6.98427 52.0962 7.54846C51.1211 8.06781 50.268 8.78526 49.5927 9.65377C48.9213 10.5367 48.4141 11.5309 48.0949 12.5897C47.762 13.647 47.5913 14.7477 47.5884 15.8551C47.5858 17.0435 47.7813 18.2243 48.1673 19.3496C48.5347 20.4278 49.0988 21.4302 49.8315 22.3071C50.5527 23.1533 51.4385 23.8474 52.4363 24.348C53.4485 24.8678 54.5736 25.1357 55.714 25.1285C56.3723 25.125 57.0279 25.0457 57.6676 24.8922C58.3424 24.7444 58.9927 24.5034 59.5995 24.1761C60.228 23.8297 60.801 23.3929 61.2999 22.88C61.8345 22.3273 62.257 21.6783 62.5444 20.968L66.9581 23.4815C66.5159 24.5046 65.8714 25.4298 65.0624 26.2026C64.2379 26.992 63.305 27.6622 62.2912 28.1934C61.2497 28.7376 60.1438 29.1514 58.999 29.425C57.8751 29.7052 56.721 29.8494 55.5621 29.8547C53.6793 29.8747 51.819 29.45 50.1354 28.6159C48.5313 27.8161 47.095 26.7227 45.9025 25.3934C44.7165 24.061 43.7782 22.5312 43.1313 20.8749C42.4775 19.2256 42.1437 17.4692 42.1472 15.6976Z" fill="black"/>
<path d="M79.3456 29.9904C77.8211 30.0117 76.3077 29.7292 74.8957 29.1598C73.6329 28.6547 72.4878 27.8993 71.5309 26.9399C70.574 25.9806 69.8255 24.8377 69.3316 23.5814C68.8366 22.3119 68.591 20.9606 68.608 19.6C68.5944 18.2093 68.8397 16.8281 69.3316 15.5254C69.8186 14.2559 70.5638 13.0988 71.5209 12.1257C72.4779 11.1527 73.6266 10.3843 74.8957 9.86827C76.3243 9.28425 77.8581 8.99431 79.4035 9.01613C80.9352 8.99122 82.4554 9.2814 83.8679 9.86827C85.1251 10.4071 86.2596 11.1913 87.2035 12.1741C88.1287 13.128 88.8476 14.2586 89.3163 15.4967C89.7958 16.7556 90.0409 18.09 90.0399 19.4352C90.0399 19.7718 90.0399 20.0941 90.0399 20.402C90.0306 20.6623 89.9967 20.9213 89.9386 21.1754H74.1143C74.1754 21.9209 74.3741 22.649 74.7004 23.3236C74.996 23.9235 75.4064 24.4609 75.9087 24.9062C76.3984 25.3435 76.9682 25.6838 77.5874 25.9087C78.2097 26.1401 78.869 26.259 79.5338 26.2596C80.5715 26.2441 81.5879 25.9655 82.4859 25.4504C83.3308 25.0287 83.9992 24.3266 84.3744 23.4668L88.8677 24.6985C88.0658 26.2905 86.8074 27.6132 85.2499 28.501C83.4594 29.5296 81.4152 30.0453 79.3456 29.9904ZM84.6493 17.8169C84.581 16.4277 83.9716 15.1188 82.949 14.1648C81.9646 13.2629 80.6726 12.7619 79.3312 12.7619C77.9897 12.7619 76.6977 13.2629 75.7134 14.1648C75.2324 14.6185 74.8421 15.1578 74.5629 15.7545C74.2531 16.3964 74.0737 17.0923 74.0347 17.8026L84.6493 17.8169Z" fill="black"/>
<path d="M105.177 13.8499C103.709 13.8462 102.259 14.1539 100.922 14.7522C99.7388 15.2747 98.7839 16.1994 98.2304 17.3588V29.6039H92.999V9.36719H97.8035V13.6637C98.1654 12.9958 98.6103 12.3751 99.1276 11.8162C99.6076 11.2839 100.144 10.8038 100.727 10.384C101.262 9.99575 101.845 9.678 102.463 9.4388C103.002 9.22691 103.576 9.11524 104.156 9.1094H104.8C104.939 9.10875 105.077 9.12316 105.213 9.15236L105.177 13.8499Z" fill="black"/>
<path d="M116.341 29.9901C114.817 30.0114 113.303 29.7289 111.891 29.1594C110.637 28.6474 109.5 27.8892 108.55 26.9304C107.6 25.9716 106.856 24.8323 106.363 23.5811C105.868 22.3116 105.623 20.9603 105.64 19.5996C105.626 18.209 105.871 16.8278 106.363 15.5251C106.85 14.2556 107.596 13.0985 108.553 12.1254C109.51 11.1524 110.658 10.384 111.927 9.86794C113.356 9.28392 114.89 8.99398 116.435 9.01579C117.945 9.00158 119.442 9.29151 120.835 9.86794C122.101 10.4044 123.246 11.1887 124.199 12.1738C125.124 13.1276 125.843 14.2582 126.312 15.4964C126.791 16.7553 127.036 18.0896 127.035 19.4349C127.035 19.7715 127.035 20.0937 127.035 20.4016C127.026 20.662 126.992 20.9209 126.934 21.175H111.11C111.171 21.9205 111.37 22.6486 111.696 23.3233C111.991 23.9014 112.391 24.4208 112.875 24.8557C113.366 25.2915 113.936 25.6316 114.554 25.8583C115.179 26.0902 115.84 26.209 116.508 26.2091C117.538 26.208 118.552 25.9467 119.453 25.4501C120.299 25.0309 120.968 24.328 121.341 23.4665L125.899 24.6982C125.098 26.2902 123.839 27.6128 122.282 28.5006C120.481 29.5358 118.423 30.0517 116.341 29.9901ZM121.645 17.8166C121.576 16.4291 120.969 15.1214 119.952 14.1645C119.198 13.5031 118.274 13.0597 117.283 12.8828C116.291 12.706 115.27 12.8026 114.33 13.162C113.729 13.3991 113.179 13.7466 112.709 14.186C112.23 14.6333 111.84 15.1652 111.558 15.7542C111.252 16.3973 111.073 17.0925 111.03 17.8022L121.645 17.8166Z" fill="black"/>
<path d="M137.722 29.9901C136.001 29.9932 134.291 29.7199 132.658 29.181C131.111 28.6893 129.678 27.9009 128.439 26.8608L130.393 23.6169C131.511 24.426 132.726 25.0947 134.011 25.6077C135.135 26.0464 136.333 26.2746 137.542 26.2808C138.401 26.3262 139.255 26.1247 140.002 25.7008C140.287 25.5278 140.521 25.2827 140.678 24.9907C140.836 24.6986 140.912 24.3703 140.899 24.0394C140.906 23.7007 140.809 23.3678 140.62 23.0851C140.431 22.8024 140.16 22.5833 139.843 22.4569C138.731 21.9854 137.584 21.6 136.413 21.304C135.081 20.9387 133.953 20.5879 133.012 20.2585C132.208 19.9882 131.448 19.6047 130.755 19.1199C130.222 18.7392 129.793 18.2351 129.503 17.6519C129.227 17.0246 129.094 16.345 129.112 15.6612C129.097 14.7011 129.305 13.7505 129.72 12.8827C130.117 12.0641 130.696 11.3445 131.413 10.7774C132.176 10.1805 133.045 9.72888 133.974 9.44549C135.002 9.12803 136.074 8.97099 137.151 8.98003C138.624 8.96708 140.09 9.18954 141.492 9.63883C142.857 10.0991 144.113 10.8301 145.182 11.7871L143.077 14.9164C142.155 14.2114 141.137 13.6399 140.052 13.2193C139.128 12.8694 138.148 12.6851 137.158 12.6751C136.379 12.651 135.608 12.8392 134.93 13.2193C134.634 13.401 134.394 13.6591 134.236 13.9657C134.078 14.2724 134.008 14.616 134.032 14.9594C134.021 15.2695 134.096 15.5768 134.249 15.8473C134.422 16.1045 134.655 16.3159 134.93 16.4632C135.323 16.6742 135.734 16.8491 136.16 16.9859C136.666 17.1506 137.303 17.3225 138.055 17.5087C139.459 17.8667 140.665 18.2271 141.673 18.59C142.547 18.8845 143.376 19.2991 144.133 19.8216C144.724 20.2379 145.205 20.7878 145.537 21.4257C145.852 22.1107 146.005 22.8575 145.986 23.6098C146.021 24.5111 145.837 25.4077 145.449 26.2239C145.061 27.0402 144.481 27.7523 143.757 28.3002C142.288 29.4173 140.277 29.9901 137.722 29.9901Z" fill="black"/>
<path d="M8.61029 4.5691C8.79842 4.23253 8.99378 3.91029 9.20361 3.58805C9.51521 3.1219 9.99301 2.78924 10.5416 2.65649C11.0902 2.52375 11.6692 2.60069 12.163 2.87196C12.4334 3.02127 12.6698 3.22423 12.8574 3.46812C13.045 3.71202 13.1796 3.99161 13.253 4.28938C13.3263 4.58716 13.3368 4.89671 13.2837 5.19867C13.2306 5.50063 13.1151 5.7885 12.9444 6.04424C12.7997 6.26623 12.6622 6.48822 12.532 6.76033C12.4017 7.03245 12.2787 7.22579 12.1702 7.47643C12.0412 7.75411 11.8559 8.00264 11.6259 8.20664C11.3959 8.41063 11.1261 8.56576 10.8331 8.66241C10.5401 8.75907 10.2302 8.7952 9.92255 8.76857C9.61489 8.74194 9.31602 8.65312 9.04443 8.5076C8.54995 8.23699 8.17689 7.79165 7.99982 7.26061C7.82275 6.72957 7.85472 6.15196 8.08933 5.64323C8.24851 5.24222 8.42216 4.90566 8.61029 4.5691ZM14.1672 26.417C11.0924 24.7324 8.63534 22.1275 7.14835 18.9759C5.66137 15.8242 5.22077 12.2875 5.8897 8.8728C5.99355 8.31377 5.91742 7.73658 5.67206 7.22265C5.42669 6.70873 5.02449 6.28402 4.52217 6.00844C4.13251 5.79464 3.69723 5.67519 3.25195 5.65987C2.80667 5.64455 2.36406 5.73379 1.96033 5.9203C1.5566 6.10681 1.20324 6.38528 0.92915 6.73292C0.655064 7.08056 0.468049 7.48749 0.38341 7.9204C-0.487529 12.4691 0.114258 17.1737 2.10303 21.3641C4.0918 25.5545 7.36611 29.0168 11.4594 31.2578C15.5528 33.4988 20.2563 34.4041 24.9 33.8448C29.5436 33.2855 33.8904 31.2901 37.3212 28.1428C37.6517 27.8432 37.9055 27.4701 38.0618 27.0544C38.2181 26.6386 38.2723 26.1921 38.22 25.7515C38.1677 25.311 38.0104 24.889 37.7611 24.5204C37.5117 24.1518 37.1774 23.8471 36.7857 23.6314C36.2768 23.3547 35.6929 23.2431 35.1165 23.3125C34.54 23.3818 34.0002 23.6287 33.5731 24.0181C31.0083 26.3939 27.7496 27.9054 24.2638 28.3363C20.7779 28.7672 17.2437 28.0954 14.1672 26.417ZM16.3379 22.5358C17.897 23.3874 19.6262 23.8891 21.4031 24.0054C23.1799 24.1217 24.9609 23.8498 26.6197 23.2089C27.1091 23.0132 27.5322 22.684 27.8397 22.2595C28.1473 21.835 28.3267 21.3327 28.357 20.8112C28.3874 20.2898 28.2674 19.7705 28.011 19.3139C27.7547 18.8572 27.3726 18.4821 26.9091 18.2321C26.5485 18.0378 26.1496 17.9232 25.7399 17.896C25.3303 17.8688 24.9195 17.9297 24.5359 18.0746C23.6476 18.4144 22.6948 18.5572 21.7446 18.4931C20.7945 18.4289 19.8701 18.1593 19.0367 17.7031C18.2033 17.247 17.4811 16.6156 16.921 15.8533C16.361 15.091 15.9767 14.2163 15.7952 13.2911C15.7161 12.8923 15.5502 12.5154 15.309 12.1864C15.0679 11.8575 14.7573 11.5845 14.3988 11.3863C13.9405 11.1337 13.4194 11.0144 12.8956 11.042C12.3717 11.0695 11.8664 11.243 11.4377 11.5422C11.0091 11.8415 10.6745 12.2545 10.4726 12.7336C10.2706 13.2128 10.2095 13.7386 10.2962 14.2506C10.6247 15.9867 11.3367 17.6295 12.3811 19.0618C13.4255 20.494 14.7766 21.6802 16.3379 22.5358ZM25.3824 6.345C26.2154 6.7987 26.938 7.42744 27.4992 8.18703C28.0605 8.94662 28.4469 9.81863 28.6312 10.7418C28.7104 11.1406 28.8763 11.5175 29.1174 11.8465C29.3586 12.1754 29.6692 12.4484 30.0277 12.6466C30.4865 12.8982 31.0077 13.0168 31.5314 12.9889C32.0552 12.961 32.5605 12.7877 32.9894 12.4887C33.4182 12.1898 33.7534 11.7774 33.9564 11.2988C34.1595 10.8201 34.2222 10.2946 34.1375 9.78224C33.8076 8.04816 33.0955 6.40741 32.0517 4.97682C31.008 3.54624 29.6583 2.36103 28.0989 1.5056C26.5395 0.650179 24.8087 0.145586 23.0297 0.0277631C21.2508 -0.0900597 19.4674 0.181786 17.8067 0.82394C17.3077 1.01497 16.8747 1.34423 16.5597 1.77233C16.2447 2.20043 16.061 2.70926 16.0304 3.23799C15.9999 3.76671 16.1239 4.29295 16.3876 4.75378C16.6513 5.2146 17.0435 5.59052 17.5173 5.83658C17.88 6.02877 18.2799 6.14223 18.6904 6.1694C19.1009 6.19657 19.5125 6.13681 19.8978 5.99412C20.7826 5.6534 21.7319 5.50826 22.6794 5.56887C23.6268 5.62948 24.5493 5.89438 25.3824 6.345Z" fill="url(#paint0_linear_55_1461)"/>
</g>
<defs>
<linearGradient id="paint0_linear_55_1461" x1="38.2329" y1="17.0016" x2="-1.03847e-05" y2="17.0008" gradientUnits="userSpaceOnUse">
<stop offset="0.02" stop-color="#58B3FA"/>
<stop offset="0.51" stop-color="#0BFFFC"/>
<stop offset="1" stop-color="#0AF0A8"/>
</linearGradient>
<clipPath id="clip0_55_1461">
<rect width="146" height="34" fill="white"/>
</clipPath>
</defs>
</svg>
