<svg width="39" height="34" viewBox="0 0 39 34" fill="none" xmlns="http://www.w3.org/2000/svg">
<path d="M8.61029 4.56867C8.79842 4.23211 8.99378 3.90987 9.20361 3.58762C9.51521 3.12148 9.99301 2.78881 10.5416 2.65607C11.0902 2.52332 11.6692 2.60027 12.163 2.87153C12.4334 3.02085 12.6698 3.2238 12.8574 3.4677C13.045 3.71159 13.1796 3.99118 13.253 4.28896C13.3263 4.58673 13.3368 4.89629 13.2837 5.19825C13.2306 5.50021 13.1151 5.78807 12.9444 6.04382C12.7997 6.2658 12.6622 6.48779 12.532 6.75991C12.4017 7.03202 12.2787 7.22537 12.1702 7.476C12.0412 7.75369 11.8559 8.00221 11.6259 8.20621C11.3959 8.4102 11.1261 8.56533 10.8331 8.66198C10.5401 8.75864 10.2302 8.79477 9.92255 8.76814C9.61489 8.74151 9.31602 8.65269 9.04443 8.50717C8.54995 8.23656 8.17689 7.79122 7.99982 7.26018C7.82275 6.72915 7.85472 6.15153 8.08933 5.64281C8.24851 5.24179 8.42216 4.90523 8.61029 4.56867ZM14.1672 26.4166C11.0924 24.732 8.63534 22.1271 7.14835 18.9754C5.66137 15.8238 5.22077 12.2871 5.8897 8.87238C5.99355 8.31334 5.91742 7.73615 5.67206 7.22223C5.42669 6.70831 5.02449 6.2836 4.52217 6.00801C4.13251 5.79421 3.69723 5.67476 3.25195 5.65944C2.80667 5.64412 2.36406 5.73337 1.96033 5.91987C1.5566 6.10638 1.20324 6.38485 0.92915 6.73249C0.655064 7.08013 0.468049 7.48706 0.38341 7.91998C-0.487529 12.4686 0.114258 17.1733 2.10303 21.3637C4.09181 25.5541 7.36611 29.0164 11.4594 31.2574C15.5528 33.4984 20.2563 34.4037 24.9 33.8444C29.5436 33.2851 33.8904 31.2896 37.3212 28.1424C37.6517 27.8428 37.9055 27.4697 38.0618 27.054C38.2181 26.6382 38.2723 26.1916 38.22 25.7511C38.1677 25.3105 38.0104 24.8886 37.7611 24.52C37.5117 24.1514 37.1774 23.8467 36.7857 23.631C36.2768 23.3542 35.6929 23.2426 35.1165 23.312C34.54 23.3814 34.0002 23.6283 33.5731 24.0177C31.0083 26.3934 27.7496 27.905 24.2638 28.3359C20.7779 28.7668 17.2437 28.095 14.1672 26.4166ZM16.3379 22.5354C17.897 23.3869 19.6262 23.8887 21.4031 24.005C23.1799 24.1213 24.9609 23.8494 26.6197 23.2085C27.1091 23.0128 27.5322 22.6835 27.8397 22.259C28.1473 21.8345 28.3267 21.3323 28.357 20.8108C28.3874 20.2893 28.2674 19.77 28.011 19.3134C27.7547 18.8568 27.3726 18.4817 26.9091 18.2317C26.5485 18.0374 26.1496 17.9227 25.7399 17.8955C25.3303 17.8683 24.9195 17.9293 24.5359 18.0741C23.6476 18.414 22.6948 18.5568 21.7446 18.4926C20.7945 18.4285 19.8701 18.1588 19.0367 17.7027C18.2033 17.2466 17.4811 16.6152 16.921 15.8528C16.361 15.0905 15.9767 14.2159 15.7952 13.2907C15.7161 12.8919 15.5502 12.5149 15.309 12.186C15.0679 11.8571 14.7573 11.584 14.3988 11.3859C13.9405 11.1333 13.4194 11.0139 12.8956 11.0415C12.3717 11.0691 11.8664 11.2425 11.4377 11.5418C11.0091 11.8411 10.6745 12.2541 10.4726 12.7332C10.2706 13.2123 10.2095 13.7382 10.2962 14.2502C10.6247 15.9863 11.3367 17.6291 12.3811 19.0613C13.4255 20.4936 14.7766 21.6798 16.3379 22.5354ZM25.3824 6.34457C26.2154 6.79828 26.938 7.42701 27.4992 8.1866C28.0605 8.94619 28.4469 9.81821 28.6312 10.7414C28.7104 11.1402 28.8763 11.5171 29.1174 11.846C29.3586 12.175 29.6692 12.448 30.0277 12.6462C30.4865 12.8978 31.0077 13.0164 31.5314 12.9885C32.0552 12.9606 32.5605 12.7872 32.9894 12.4883C33.4182 12.1894 33.7534 11.777 33.9564 11.2984C34.1595 10.8197 34.2222 10.2941 34.1375 9.78181C33.8076 8.04774 33.0955 6.40698 32.0517 4.9764C31.008 3.54581 29.6583 2.3606 28.0989 1.50518C26.5395 0.649752 24.8087 0.145159 23.0297 0.0273358C21.2508 -0.090487 19.4674 0.181359 17.8067 0.823513C17.3077 1.01455 16.8747 1.3438 16.5597 1.7719C16.2447 2.2 16.061 2.70884 16.0304 3.23756C15.9999 3.76628 16.1239 4.29252 16.3876 4.75335C16.6513 5.21418 17.0435 5.59009 17.5173 5.83615C17.88 6.02834 18.2799 6.14181 18.6904 6.16897C19.1009 6.19614 19.5125 6.13638 19.8978 5.99369C20.7826 5.65297 21.7319 5.50783 22.6794 5.56844C23.6268 5.62906 24.5493 5.89395 25.3824 6.34457Z" fill="url(#paint0_linear_210_640)"/>
<defs>
<linearGradient id="paint0_linear_210_640" x1="38.2329" y1="17.0011" x2="-1.03848e-05" y2="17.0004" gradientUnits="userSpaceOnUse">
<stop offset="0.02" stop-color="#58B3FA"/>
<stop offset="0.51" stop-color="#0BFFFC"/>
<stop offset="1" stop-color="#0AF0A8"/>
</linearGradient>
</defs>
</svg>
